/* XPM */
static char *bf29f206a30c4eb0bd0f11867dc20b26rANvXVip4FuCj5ro[] = {
/* columns rows colors chars-per-pixel */
"64 64 222 2 ",
"   c #1E0E02",
".  c #1F1106",
"X  c #231206",
"o  c #2A1406",
"O  c #2F1A07",
"+  c #24140B",
"@  c #2B160B",
"#  c #25180E",
"$  c #2D190C",
"%  c #351B0D",
"&  c #331C0C",
"*  c #271814",
"=  c #2C1C13",
"-  c #2E1E1A",
";  c #331E13",
":  c #391E13",
">  c #39220E",
",  c #2E2015",
"<  c #2E211B",
"1  c #342114",
"2  c #3A2314",
"3  c #34231B",
"4  c #3A251B",
"5  c #3D291B",
"6  c #3C2C23",
"7  c #483109",
"8  c #593D0C",
"9  c #462B18",
"0  c #422C1D",
"q  c #42301E",
"w  c #4C311E",
"e  c #422E22",
"r  c #482F20",
"t  c #443124",
"y  c #4B3424",
"u  c #453428",
"i  c #4B3629",
"p  c #4D3A2B",
"a  c #523624",
"s  c #563924",
"d  c #5A3B25",
"f  c #51372A",
"g  c #543C2B",
"h  c #5A3E2B",
"j  c #563E32",
"k  c #5E430C",
"l  c #5D4219",
"z  c #6E4E06",
"x  c #7A550A",
"c  c #7D590E",
"v  c #6B4A1A",
"b  c #7C5915",
"n  c #54412F",
"m  c #5D422D",
"M  c #5D4332",
"N  c #584634",
"B  c #694627",
"V  c #6D4C25",
"C  c #63442C",
"Z  c #6C462C",
"A  c #6D4A2E",
"S  c #714C26",
"D  c #724C2E",
"F  c #6C5021",
"G  c #775524",
"H  c #74512C",
"J  c #7A532D",
"K  c #634532",
"L  c #6C4630",
"P  c #654A35",
"I  c #6D4C33",
"U  c #604739",
"Y  c #654B39",
"T  c #6B4E39",
"R  c #724E33",
"E  c #754E35",
"W  c #794F34",
"Q  c #734F38",
"!  c #7A4F38",
"~  c #6E5036",
"^  c #67513D",
"/  c #6D513B",
"(  c #725032",
")  c #755132",
"_  c #755135",
"`  c #785236",
"'  c #755837",
"]  c #725139",
"[  c #765239",
"{  c #74533A",
"}  c #79543A",
"|  c #77593E",
" . c #7A5A3C",
".. c #634940",
"X. c #6F5643",
"o. c #745641",
"O. c #755A42",
"+. c #775946",
"@. c #7A5B43",
"#. c #7D5F48",
"$. c #7D614B",
"%. c #855E17",
"&. c #855D1A",
"*. c #966C06",
"=. c #976C0A",
"-. c #996D0A",
";. c #9D7106",
":. c #9C710A",
">. c #8B6315",
",. c #916A12",
"<. c #956915",
"1. c #956A15",
"2. c #946819",
"3. c #A77803",
"4. c #AB7C02",
"5. c #A67908",
"6. c #A97F18",
"7. c #8B6224",
"8. c #956E28",
"9. c #A37D28",
"0. c #83634D",
"q. c #8F7867",
"w. c #AF800A",
"e. c #B48203",
"r. c #BC8904",
"t. c #B3840C",
"y. c #AE8115",
"u. c #B48712",
"i. c #B5891A",
"p. c #BA8D1A",
"a. c #BB901D",
"s. c #B78E29",
"d. c #BD9426",
"f. c #A88537",
"g. c #BB963A",
"h. c #CA9508",
"j. c #D59E05",
"k. c #C79511",
"l. c #DAA30C",
"z. c #E1A602",
"x. c #E6AB02",
"c. c #EBAD01",
"v. c #EDB000",
"b. c #F4B501",
"n. c #F7B803",
"m. c #F8B801",
"M. c #F0B308",
"N. c #F7BA0B",
"B. c #F8B90B",
"V. c #F6BB12",
"C. c #F8BC13",
"Z. c #F7BE1D",
"A. c #F8BE1C",
"S. c #C19624",
"D. c #C49927",
"F. c #C69D38",
"G. c #D7A929",
"H. c #CBA235",
"J. c #CCA43D",
"K. c #D3A835",
"L. c #D0A73B",
"P. c #D4AB3C",
"I. c #F6BF21",
"U. c #F8C023",
"Y. c #F7C128",
"T. c #F6C437",
"R. c #F9C534",
"E. c #F8C73B",
"W. c #BF9B46",
"Q. c #C19D43",
"!. c #CCA84E",
"~. c #D5B047",
"^. c #D7B24B",
"/. c #DCB651",
"(. c #D9B554",
"). c #E1BB55",
"_. c #E1BE5C",
"`. c #CDB16A",
"'. c #D6B869",
"]. c #D2B97B",
"[. c #F7C943",
"{. c #F9C944",
"}. c #F9CB4B",
"|. c #E5C25D",
" X c #EDC85F",
".X c #F3C952",
"XX c #F9CE54",
"oX c #F8CF59",
"OX c #F9D05B",
"+X c #EDCC6B",
"@X c #F1CF6C",
"#X c #F9D265",
"$X c #F9D46C",
"%X c #F6D576",
"&X c #F9D674",
"*X c #F8D778",
"=X c #F9D879",
"-X c #D2BD8A",
";X c #DAC496",
":X c #E3CC8F",
">X c #F8DB86",
",X c #FBDF91",
"<X c #FAE095",
"1X c #FBE29B",
"2X c #DECEA9",
"3X c #E7D6AB",
"4X c #E5D6B0",
"5X c #FAE5A5",
"6X c #FBEAB5",
"7X c #EADEC0",
"8X c #ECE1CA",
"9X c #FAEEC9",
"0X c #FCF0CC",
"qX c #F2EAD6",
"wX c #F2EBDC",
"eX c #FCF5DB",
"rX c #F3EEE0",
"tX c #FAF5E8",
"yX c #FDF9EC",
"uX c #FAF7F0",
"iX c #FDFBF4",
"pX c #FFFFFE",
/* pixels */
"L L Q Q Q A I Q ~ ~ A A A A H I R _ A Z Z Z Z Z Z B B Z Z B Z Z Z D R R Q I L Q [ ( ( R A A A Z f f U T K R ] A _ R A I A A R A ",
"L L L R E _ E ( I A Q ( T A A _ _ R R [ E E E Q W D Z D D D W W R E _ ` [ Q I Q ( I L ( R I R Y M p K Y ] I R E } D A B A A ~ A ",
"E E E E E H R R R Q Q Q Q E _ } _ _ L [ } [ Q Q o.Q ! W R E E D D ) ) ` _ R Q R R R A I ( Q ] ] j r M Y O.T ( ( D A R H ~ ~ A A ",
"} } ` ) E R R E _ ] R I E } E Z Q [ R Q [ O.] ] Q Q Q E E E E E D D ) ) _ R R R R _ ) Q [ ( ] / j 2 f Y / { I _ A A ' ~ H H ~ ( ",
"` E ( ( ' ) ) E Q Q R R R Q ! E _ } [ } I Q } ] ! Q E Q E R R Q E E Q Q E E E W ) ) } ) Q Q L o.h : g / T Q R ( _ [ _ I I ( [ ] ",
"D ) H ' ( J ( R I Q Q R R Q Q ! _ Q R [ [ } } ( Q Q Q Q [ E Q [ Q R ! E E E E E E ( ' ' Q Q T o.g 2 M / T I ] I I I ( / ( ( ( / ",
" .@.@.' ' ' ' ' [  .@.@.} } [ R [ } E _ @.@.] | Q Q [ | | [ Q Q Q R Q E R R W E E ` ( [ Q T o...g : y Y X.I / ( ] ' | | ] ] O.| ",
"O.X.~ P ~ ~ T ^ / Y K U K K Y ] I ( R C s a y y y a p d C I [ [ Q R R ! Q } ` D R @.] T T X.+.U e 4 j +.T Y Y +.O./ T T X.X.T T ",
"6 3 3 1 1 4 e e u e 4 4 1 1 5 g I B I d 2 & 1 = = 1 ; % 9 C [ _ [ [ L A A ` } Q E Q I K f j ..u = 6 4 j p y y y t y t 5 t y e e ",
". . * = 3 3 3 3 - 3 3 = = = ; y A A K d 2 $ = < 3 - = & > C [ ` E ( _ A Z Z L R I T K h 9 : : @ * * + * 1 3 3 1 $ $ $ = ; ; $ @ ",
"= # O & > 2 9 5 0 0 2 : % O 2 C ( _ I d 2 $ 1 3 - 3 0 r s L _ _ ( R R A Z C Z L Q Q L h r : @ @ @ ; % $ 2 1 $ > $ @ o O @ o o @ ",
"N m h m m m C P P m w 9 9 9 s ] [ I Z I m 2 & 1 : 0 j T Q ' R Q _ Q Q A Z A L R I Q Q U K M j f M j N P T P m P h h m M m K Y ] ",
"O. . .|  . .} ` I ] { [ ( Q R R D ] ` ' [ R R C ] Q Q [ _ >.2.2.2.2.2.2.2.2.2.1.2.A ' ] ] O.o.| @.( ' @.` 7.@.@.'  .$. . . . .' ",
"' ' _ D E W ) ) [ } } } ) ' } ` } } ( [ ] ! ! ! } E D E ) 9.i.p.p.p.p.p.p.p.p.p.4.v A I A I ( R A Z D H B H R A H ( J _ ) ` ) H ",
") ( ( D W W R ` R E Q } Q E R _ R R E R R E W W W J &.&.>.!././././././.^././.~.4.>.%.>.b H } [ ` R D D Z W E D ( ( R R ! } ` ` ",
"' _ ) ( ` W R R R } R R E ! R D R D W R D D D D J 8.D.D.D..XXXXXXXXXXXXXXXXXXX.XD.D.D.e.5.&.J E R R R E E D D E R _ E R E W W W ",
"E [ Q ` ` ( D A R _ [ E R R W D W D D D D W R J >.s.%X%X%XV.B.m.n.m.B.n.n.m.n.C.&X=X&XD.4.5.&.Z L R R R E ( E E ) E ( R ) ' E W ",
"Q Q ' _ ' H H ( D R Q R R R D W W W D W D R J 7.y.H.%X%X#XN.m.v.c.c.c.c.c.c.n.B.#X$X=XH.p.4.>.G 7.E R R E ! _ E R R R L A ( R R ",
"L R ` ) ' ( R ( D E E E R D W W W ! W D D A >.H.%X*X$XT.m.b.v.r.4.t.e.4.t.r.c.b.n.U.&X=X%XH.4.4.1.E R R R L E W R R E R R E W W ",
"L Q } _ ) H D R D E W W W D D W D R R Z A H f.|.%X#XR.A.m.h.h.P.^.^.^.^.^.P.h.j.N.I.Z.$X&X|.F.6.=.B C L L Z L ! R R E E R Q ! ! ",
"L Q E _ E E D W ` W E R W ) E S D D E T 1.s.(.%X*XoXn.b.m.e.u.|.%X%X%X%X%X_.u.e.m.B.m.XX&X%X).k.3.-.v R Q L Z Z W D D R L W W W ",
"R } Q _ D D R W W ) D D E ) D A ) E E $.6.i./.XXA.V.b.j.r. X XU.}.$X=X$X}.I.+X).4.j.m.C.A.XX).s.4.:.v ! ! L D W W R R R R R W W ",
"Q ( R ( ( ) D E R D R H D D H A D D E q.f.d._.}.N.b.c.h.w.+X#XA.E.#X%X$X{.I.#X@X4.h.c.m.B.}._.S.4.;.b ! E Z D ` W W W E R D D W ",
"[ ( ( ' ) ) A D ) R D ( ( ( ~ ( ) J S 8.-X3X>X}.N.z.h.K.|.Y.I.B.C.I.XX=X$XXXI.Z.z.j.h.x.B.}.@X|.P.3.=.1.R R E D S D _ E W W D D ",
"( ( ' ( R ' _ R _ _ _ D ` _ R ( A E S ;.4XyX9X$XN.z.t.^.=XB.m.m.m.m.U.}.#X$X[.R.n.j.4.z.B.}.=X=X).4.4.4.A D R D W D R [ ~ ' I H ",
"~ ( ` ) ( ( R ` E D _ _ _ _ Q _ ' I V ;.4XpXyX,XV.z.t.^.=XB.m.m.m.m.B.A.{.*X$X#XN.j.r.z.B.}.=X=X).4.4.3.C _ _ D D E I T T I | ] ",
"' '  .' ' | [ }  .' ( ` ' [ } ( C | V :.4XpXpX1XV.z.t.^.*XE.R.N.m.m.m.B.U.}.&X&XU.G.4.z.B.}.&X=X).4.4.3.C ( R ( E I / T X.o./ Y ",
"O.' / ~ / O.o.T C C ~ ~ C C C P P ^ B =.4XpXpX1XV.z.t.(.>X=X$XU.n.m.m.m.m.A.#X&X&X^.k.z.B.}.&X=X).4.4.3.C o.[ [ } L T y 5 0 9 n ",
"i 6 e 6 6 e u 4 3 & 5 n q O % M P m B *.4XpXpX1XV.l.u.'.5X>X&X[.A.B.m.m.m.B.{.XX&X^.t.z.N.}.=X=X).4.4.3.d Q Q R { T a 2 $ 5 t n ",
"6 = * * * - < * # , 6 n q 1 y M C m 8 *.4XpXpX1XN.x.i.;XpX1X,X=X}.U.N.m.m.m.m.N.#X~.t.z.B.}.=X=X).4.4.4.h Z L [ { ] n 5 5 i i i ",
"6 - * * - 3 - = # , 6 N y O n P K C l *.4XpXpX1XC.x.u.;XpXyXeX<X&X&XE.m.m.m.m.m.B.l.4.z.B.{.=X=X).4.4.3.d I R ( ] ~ M t 6 N n n ",
"6 4 @ o - 3 - = O o N ^ n w m s d B 8 *.4XpXpX1XV.l.i.;XpXpXyX1X=X=X[.n.m.m.m.m.m.j.r.z.B.}.=X&X).4.4.3.C Z A ( I P n q n t n N ",
"P K m h g h M P / / / / o.] Z C m C l ;.4XpXpX1XV.z.i.;XpXpXpXpX6X>X*X#XE.m.m.m.m.j.4.z.B.}.&X=X).4.4.4.B L A B L C C h C m m P ",
"} | ] ] | ] O.[ ] [ | | | ] ( I A I v ;.:XeXyX1XV.z.i.;XpXpXpXpX0X5X,X$XXXU.n.m.m.j.r.z.B.}.=X=X).4.4.5.Z Q R Q R Q I ( ] ] ~ I ",
"I ] ] Q I T / I I ] | Q I Q Q I I I v ;._.1XeX<XV.l.i.;XpXpXpXpXpXyX6X&X&XXXC.m.m.j.4.z.B.{.&X=X).4.4.4.Z R R R L I R R I I A P ",
"Q [ ] I Q ( ( R I ] ( ( I Q R A I I v ;.).>X<X#XB.z.i.;XpXpXpXpXpXpXyX9X5X&XOX}.m.j.r.z.B.}.=X=X).4.4.3.Z R R L R R Q R I ( I ( ",
"[ Q E ( _ ( / / ( ] ] Q ( ) R I L L v ;.).=X=X}.B.z.i.;XpXpXpXpXpXpXpXyX6X=X*X$Xm.j.4.z.B.}.=X=X).4.4.4.Z W R R A R R R H I A A ",
"[ Q Q _ ( I R R I ( R Q R R R R ( R v ;.).=X=X}.N.z.i.;XpXpXpXpXpXpXpXiXeX6X=X*X}.G.r.x.n.}.=X=X).4.4.3.Z E R R R R _ ) R R D A ",
"( ( R ( _ Q ( [ R R R R D R R E _ R v :.).=X=X}.B.z.i.;XpXpXpXpXpXpXpXpXpXyX5X<X=X^.t.z.B.}.=X=X).4.4.4.D R R R R D H R D R ) ) ",
"A A R _ _ R Q _ _ R R R R R R R R E v ;.).=X=X{.B.l.i.;XpXpXpXpXpXpXpXpXpXiXeX0X=X^.t.z.B.}.=X=X).4.4.4.Z R D Z R E E D R D D R ",
"A E ( ( ] I R _ _ Q R D E E _ E E D V ,.J.|.@X}.N.c.k.'.4XiXpXpXpXpXpXpXpXpXpXyX(.K.h.c.B.}.@X|.K.3.*.1.A R A R ) E D A D ) E D ",
"R _ [ _ _ Q E ` E R R R R E _ R R R R R 1.p.).}.B.n.v.h.4.rXiXpXpXpXpXpXpXpXiXrXw.k.M.n.B.}.).a.4.;.v R ( R I R D D D A E D D ) ",
"( ( ] _ Q R R Q R R R Q D R R R E W Q R -.d.).oXU.C.v.j.r.4X8XuXpXpXpXpXpXuX8X4Xg.~.E.I.U.XX).a.4.;.v D R A R D A R A R ) D D ) ",
"] [ [ [ ( R R Q E E Q Q ( R ( ( E _ E R 1.i.(.%X*XoXN.m.n.r.i.7XuXuXuXuXuX7Xs.s.pXpXpX5X>X=X/.p.4.-.v I ( A ( I I ) _ R ` E D ` ",
"~ ] ] ( [ [ [ [ Q Q Q } ( R ' [ Q R ( Q A A 8.~.%X%X.XY.n.z.l.H.W.W.Q.W.W.`.2X7XpXpXpXtX9X'.p.t.=.A A I ( I ( R I _ ) R E _ R ( ",
"] ] Q Q ( [ ] [ } Q [ { ( Q [ [ _ Q _ Q E Z >.H.%X=X$XT.n.b.v.r.4.4.w.4.3.g.qXiXpXpXpXiXtX`.4.4.1.) L R ( I R ( R ( ( I R ( _ R ",
"[ | [ Q Q Q Q Q } [ { ] | [ [ [ } [ ] Q I Q ' 8.y.H.=X$X#XV.n.v.v.c.@XqXqXwXpXpXpXpXpX`.s.t.,.S J R ( Q ~ R I ( I A I R I ( ( R ",
"^ T T P Y T T T ] Y T Q T T T T ] [ [ o.] o.] ( b f.+X+X+XZ.C.C.A.C.=XyXiXpXpXpXqXqXwXW.5.,.G Y ~ / / T Y ~ T / ~ Y T T T T ] P ",
"q 5 q q 0 0 0 e 0 4 5 2 0 0 y m C A / / ^ d 2 0 y V S.a.a..XoXOXoXOX*X5X0XpXpXtXW.J.Q.y.*.k t i u u 6 t 6 u t 6 5 t t t t 6 5 5 ",
"1 $ $ > ; ; ; ; : @ $ ; $ o % w A A I / ^ g : @ X % k k k g.J.J.L.J.J.~.(.].].`.4.z k k 7 > = # # + # # # # # , + # # $ , $ + + ",
"O O O $ & % % % % & % 2 > > 9 a A A L T I g % o ; $ @ o O ,.5.5.w.w.w.w.6.w.y.y.4.> > 1 # + X   .       . # # X o X X . X X   X ",
"s n m m d d h h h m K m m C K I Q } [ ] / K y w 0 y g y a v %.>.%.%.c x c c c c c 7 y n n n w 5 5 2 1 1 0 g n g i y n y p g m N ",
"' | | @.{ @.@.o.#.@.o.| } } [  .} } } o.o.R T T O.o.+.X.#.+.O.#.| @.+.@.0. .@.@.$.| @.@.@.@.| | O./ | O.$.#.$.#.0.$.0.0.#.0.@.0.",
"' [ [ } } o.@.} ] ( [ [ [ [ ] ] ! } ! [ o.] | | / o.| | / / Q | ( } [ ` } _ } ` H ' } ] [ _ _ } ' [ { { [ / }  . .[ } } } } [ } ",
"} { ' } } } } } [ [ } ' ' ` _ ` } } Q [ } Q { ' ( ( ] [  ._ _ ] } ` E E _ ) ` ` }  .` _ E ` } [ ( ] { { [ }  .} ' E E _ } } } } ",
" ._ } } } } W W _ ' } _ ` ) E E E W E E } _ { _ Q ( [ ( _ R ( } _ R _ E } _ _ ` ` ` _ _ _ _  .` ] ' [ } ' _ ]  ._ _ ` ` } } } } ",
"} } } } [ ! [ } } [ ] ( ( ' ' _ R } [ } _ R _ ' ` _ _ _ [ } E _ _ ( _ [ _ R ( ( R _ _ _ ] [ _ R [ } { } _ _ } ` _ } ` _ ` } } } ",
"] Q } [ [ ` Q ] ] ( ] ( { } ( R _ } ( ] R _ _ ) ' E ' _ E _ Q [ [ [ [ } [ _ _ _ _ _ _ [  .} _ [ ( } _ _ _ R ' _ ` _ ` ` _ ` ) _ ",
"I Q ] [ E [ { ] [ Q I ( [ [ _ ( ( ] ( I ( [ ) R R R _ Q Q Q ] } E R E ) E _ _ _ ] R R R _ _ R ] R _ _ _ ) R ( _ E E ) ) E E E D ",
"~ ] [ ] Q I [ { | ] ~ ] { [ ] ] ] ( ( ( ' E R ( ( R _ R R Q ( ] Q R I R R Q [ E ( } [ [ _ { [ I ] _ _ _ _ ( _ [ ) ) ` _ ) ` _ ` ",
"] ] { / I I ( ] I / [ ] ] ] ( I ] ( [ _ _ _ R _ _ Q _ _ ] _ ] [ ] I I Q I ] ] | I ] | T ] ] ] / ] ~ I ] [ ] [ ] ] [ ( [ _ ] ] ] ",
"[ ~ / ( ] ] ] I I ~ | ] ~ ( ] ] ( [ { I Q _ Q Q ( Q R Q ( [ ( [ ] ] ( ] ] ( ] Q I I ( | ] ] [ ] [ ] I Q ] ] [ ( ( I Q ] ( I I R ",
"( / ( ] ] [ { ( { { ] I I R ( ] Q [ [ I Q ( Q L Q Q R R ( ] I Q Q R ( ) ( R Q R ( R Q [ ] Q R _ [ _ Q ( [ ' ' ] { ' ( [ } [ [ [ ",
"T ( ] ] ( ( { { | ( ~ ( ( I R ] Q [ Q [ ] Q Q R Q Q ( ( ( ( H H R R E D R E ( _ ` _ ` [ R _ ] R ( [ _ [ ` } } }  .[ } } } } _ _ "
};
