/* XPM */
static char *_601e33d3d624cedebab8f2f0a2eba34RRxhXJkVaqAc7F6q[] = {
/* columns rows colors chars-per-pixel */
"64 64 192 2 ",
"   c #020103",
".  c #0B0403",
"X  c #040803",
"o  c #0B0805",
"O  c #03040B",
"+  c #0A050A",
"@  c #05090E",
"#  c #0B090B",
"$  c #110602",
"%  c #110906",
"&  c #120B0D",
"*  c #030612",
"=  c #050A13",
"-  c #0A0C13",
";  c #050618",
":  c #040B1B",
">  c #0A0F1A",
",  c #0C1114",
"<  c #07111D",
"1  c #0B111B",
"2  c #12131D",
"3  c #1B1C1E",
"4  c #050F23",
"5  c #0C0F20",
"6  c #041022",
"7  c #0C1323",
"8  c #0C152A",
"9  c #0E1A2D",
"0  c #03112E",
"q  c #121523",
"w  c #141924",
"e  c #191C26",
"r  c #11172A",
"t  c #131A2C",
"y  c #1A1E2B",
"u  c #0D1B33",
"i  c #091D3B",
"p  c #141D32",
"a  c #131E3C",
"s  c #191E32",
"d  c #1D222C",
"f  c #152134",
"g  c #1C2335",
"h  c #15223C",
"j  c #1B243B",
"k  c #1D293C",
"l  c #22252C",
"z  c #202731",
"x  c #242A34",
"c  c #22273B",
"v  c #232B3C",
"b  c #2A2D3C",
"n  c #26303C",
"m  c #2B323E",
"M  c #0B1F43",
"N  c #0A2143",
"B  c #142442",
"V  c #1C2642",
"C  c #172846",
"Z  c #1D2943",
"A  c #12254D",
"S  c #15294C",
"D  c #1D2B4A",
"F  c #1A2E54",
"G  c #1E3058",
"H  c #232D43",
"J  c #292E41",
"K  c #222E49",
"L  c #263145",
"P  c #2A3244",
"I  c #24324C",
"U  c #2A344B",
"Y  c #2D394D",
"T  c #30364C",
"R  c #333B4D",
"E  c #383E4C",
"W  c #252E52",
"Q  c #253453",
"!  c #2B3652",
"~  c #273854",
"^  c #2C3A54",
"/  c #263A5A",
"(  c #2D3D5B",
")  c #2D375A",
"_  c #303751",
"`  c #333D54",
"'  c #383E56",
"]  c #323E5A",
"[  c #383F5C",
"{  c #2B3E61",
"}  c #313F61",
"|  c #39414E",
" . c #2F405C",
".. c #344155",
"X. c #3A4355",
"o. c #34425C",
"O. c #3B455C",
"+. c #3E495D",
"@. c #2D4163",
"#. c #2D456E",
"$. c #344463",
"%. c #394662",
"&. c #374866",
"*. c #3B4A64",
"=. c #33466A",
"-. c #394769",
";. c #35496B",
":. c #3C4C6B",
">. c #3E516D",
",. c #304770",
"<. c #344C72",
"1. c #3B4E72",
"2. c #3D5274",
"3. c #3E557B",
"4. c #3F5A7C",
"5. c #404757",
"6. c #424A5D",
"7. c #424D64",
"8. c #414E6A",
"9. c #425166",
"0. c #4B5363",
"q. c #43526C",
"w. c #49546D",
"e. c #4E596D",
"r. c #545C6F",
"t. c #445473",
"y. c #495774",
"u. c #455976",
"i. c #4B5A75",
"p. c #435679",
"a. c #485778",
"s. c #455A7C",
"d. c #4C5C7C",
"f. c #525E76",
"g. c #515F7D",
"h. c #4F617D",
"j. c #576276",
"k. c #52617E",
"l. c #58677E",
"z. c #52687F",
"x. c #3F5783",
"c. c #3E5B83",
"v. c #455B81",
"b. c #4C5E82",
"n. c #505F80",
"m. c #4E6183",
"M. c #4D658B",
"N. c #536384",
"B. c #596784",
"V. c #556986",
"C. c #5B6985",
"Z. c #536689",
"A. c #586789",
"S. c #56698B",
"D. c #5A6B8C",
"F. c #5E708E",
"G. c #546B93",
"H. c #5B6E91",
"J. c #5D7193",
"K. c #5E7299",
"L. c #606781",
"P. c #616E84",
"I. c #626F8A",
"U. c #63728D",
"Y. c #69758C",
"T. c #627495",
"R. c #6A7794",
"E. c #6A7995",
"W. c #637699",
"Q. c #687798",
"!. c #66799B",
"~. c #6A7B9B",
"^. c #617995",
"/. c #767F90",
"(. c #667DA1",
"). c #6A7DA2",
"_. c #758092",
"`. c #6C80A2",
"'. c #7386A6",
"]. c #7987A4",
"[. c #7788A4",
"{. c #7B8BA6",
"}. c #7787A8",
"|. c #7D8DAB",
" X c #778AAA",
".X c #7F90AC",
"XX c #7E8FB0",
"oX c #7D91B2",
"OX c #808FAB",
"+X c #8191AC",
"@X c #8193B3",
"#X c #8598B8",
/* pixels */
"      .   . . $ + +     X     O   . $ . $ % . .   % #   # + & . .   # . & .               $ . $ . . . $ % . . . . $ . . o       ",
"        O O * * @ O O     o         O     O   O   X   O           O   O O @ O     + O     O O @       O       O   O O O O       ",
"    = f L ` o.o.' R 5.g O   O O 4 8 t t 8 7 7 7 W Q ! } } ) Q K 7 j j P L Y c 6     O 4 k I I  ...X.O.` U L j p B ~ ^ ` x       ",
"    x +.u.m.m.M.k.l.R.e.: O x X.9.i.k.k.k.a.q.>.Z.A.S.H.).T.H.N.t.f.t.d.b.C.U.q.* = c O.k.D.H.K.U.D.A.V.N.A.D.b.2.M.W.+X/.d     ",
"  @ 6.f.d.u.u.h.V.S.T.j.4 ; X.j.d.f.B.N.k.g.i.a.k.k.h.w.z.z.V.i.:.d.d.A.D.A.T.q.: 7 +.f.k.A.A.A.Z.h.N.S.m.m.p.-.a.n.J.].Y.1     ",
"O O 6.f.a.a.u.i.u.d.h.i.8 p f.l.d.N.N.g.g.d.f.d.n.N.s.a.2.h.A.a.y.N.n.n.A.g.A.y.r p f.C.N.N.A.d.A.m.d.d.n.Z.Z.Z.d.n.T.E.r.@     ",
"+ O 7.i.d.m.d.i.d.g.k.f.f U l.d.d.n.g.g.N.n.g.d.d.n.d.N.u.k.N.a.y.B.k.g.f.d.N.y.j U B.l.B.N.N.a.N.N.h.h.A.A.m.n.N.d.u.q.P -     ",
"  O e.N.d.m.d.a.k.d.k.k.H +.C.h.N.n.d.d.d.b.N.b.N.g.N.b.N.m.A.g.:.B.N.g.d.N.N.f.s [ Y.N.A.N.b.Z.N.C.z.d.d.N.Z.N.Z.s.3.q.g @   . ",
". O 7.g.d.d.d.d.i.d.d.t.a o.B.f.k.d.N.N.h.k.n.a.N.A.d.m.n.d.g.8.%.i.a.i.t.k.k.t.h o.C.C.V.d.A.N.N.h.k.N.n.n.g.A.N.u.>.>.v =     ",
". * 8.g.d.g.n.d.k.k.N.n.V ` i.d.N.g.d.d.d.d.n.g.w.f.z.A.D.n.d.a.t.a.i.k.k.f.f.9.h o.l.k.k.k.A.Z.k.k.N.A.D.n.n.A.A.d.F.V.7.1     ",
"  ; y.n.g.g.d.d.u.d.N.y.h o.l.g.N.N.d.f.N.k.f.k.i.k.g.A.n.A.u.N.a.t.d.d.k.d.d.8.V $.N.k.N.N.A.C.N.N.n.A.A.B.n.B.a.>.K.^.k.t     ",
"  > f.B.A.B.d.d.N.C.I.y.h 7.B.k.g.k.k.B.C.k.f.k.7.8.C.N.N.s.C.D.A.A.A.d.d.k.B.a.V O.B.k.N.A.g.N.A.Z.N.N.n.B.B.B.k.*.S.F.C.y O o ",
"  : i.N.A.g.g.A.g.g.n.i.f o.i.f.k.k.g.k.k.k.k.D.q.q.I.~.D.^.J.M.N.F.J.T.A.D.A.N.a ' B.A.A.C.k.k.N.A.A.A.I.A.B.n.8.$.u.U.P.y     ",
"  ; t.A.N.g.n.A.B.B.I.i.p O.k.C.k.N.k.k.l.N.B.A.y.o.A.D.!.K.~.a.).!.J.W.N.N.A.H.a U C.A.A.B.B.A.d.k.k.N.B.n.B.g.w.^ B I P -     ",
"  : f.D.A.B.N.n.g.g.g.%.4 ..i.i.i.f.g.g.N.A.H.A.^.J.J.!.M.b.m.b.d.m.S.W.W.J.~.~.y Z C.g.k.d.N.N.k.d.i.d.g.g.g.g.i.] s 5 e *     ",
"  ; a.b.t.d.d.t.y.$.*.` 8 ` 8.w.t.q.q.t.s.C.W.J.!.V.#.s.v.s.s.s.v.s.s.p.b.N.W.T.p H I.B.N.a.k.f.i.d.f.k.n.g.d.g.i.w.' e 2 @     ",
"  * 9.>.$.*.$.-.:.>.u.%.p Y 8.q.u.d.V.J.D.`.J.Z.2.v.v.Z.Z.S.D.A.S.J.M.S.m.2.m.v.h R.W.Z.J.A.d.z.y.d.i.f.a.y.8.:.a.8.+.8 1 @     ",
"  * X.*.&.*.%.} $.$.( U j X.8.a.:.:.F.`.K.s.3.s.s.Z.Z.J.A.=.N.N.N.1.;.m.Z.J.M.d.t.N.T.(.T.u.d.%.q.*.o.*.o.o.o.:.$.*.%.t 1       ",
"  = ..8.%.] ] ! ^ ^ o.Y y ` 7.*.d.F.^.T.d.v.s.Z.S.m.Z.d.N.Z.M.V.b.D.S.m.Z.;.J.G.C.a.m.W.J.!.2.t.o.:.*.O.*.%.$.8.%.*.U r < O     ",
"  O R *.O.] ] ! ^ ^ o.' 8 U 8.a.H.K.!.s.p.m.S.b.Z.m.d.S.D.J.F.D.W.D.F.T.Z.Z.Z.;.Z.S.s.v.W.!.J.h.f.o.o.*.! ! ! H D I 8 5 1 =     ",
"X @ ..o.] o.^ ( o.$.o.o.j U :.H.H.).p.p.Z.H.@.m.S.N.T.J.W.W.|..X{.XXW.T.J.J.Z.S.S.m.S.s.s.K.`.H.8.:.8.*.9.w.w.q.7.w.U n w O     ",
"  O *.>.$.( ~ o.] o.*.Y 8 Y d.T.(.v.s.N.S.m.m.Z.D.H.^.|..XXX@.;.=.|.@X|..XT.J.D.m.Z.v.J.3.h.!.W.d.j.y.8.w.9.8.9.9.w.` | d O     ",
"  @ 6.e.9.+.+.9.+.+.7.R 7 X.P.U.v.p.b.M.m.Z.S.S.J.XXoX;.m.s.S.d.M.b.m.m.t.{.@XU.J.m.D.m.S.d.d.K.U.C a Z p 8 j 9 4 > 7 x d , O   ",
"    g L P L P v c g z z 2 e t r 1.v.Z.#.N.m.F.~.|.$.h.m.Z.S.H.S.S.D.S.m.N.k.{.{.!.D.M.h.Z.S.u.V.~.C.q.` ..+.6.6.Y c g v 3       ",
"    = @ @ w w t t 7 1 @ - q 8 N.1.Z.G.b.m.D.U.|.=.b.Z.Z.D.E.{.|.{.{.E.F.D.m.Z. X{.T.D.A.=.A.v.s.T.~.J.a.a.y.t.f.e.9.f d @ .     ",
"    w n P T T ' ` O.Y n q J E.p.v.Z.Z.b.S.T.@X$.b.G.D.(.{.|.+XOX+X{.{.{.!.V.N.Z.+X|.T.b.Z.H.m.m.K.^.D.1.u.a.q.w.w.O.v f -       ",
"  O v +.7.7.8.8.y.&.e.6.r L.W.x.N.W.p.S.W.T.{ N.Z.D.W.].+X{.{.{.{.OX+X.X|.~.S.h.N.}.T.J.Z.#.D.u.V.!.J.s.:.-.} y.>. .L j -       ",
"  @ R *.%.8.t.t.q.t.u.w.H R.v.x.A.{ D.b.H.@X;.M.N.).{.OX{.{.+X+X{.+X{.{.+X|.~.D.k.2.oXF.Z.Z.S.s.h.T.W.t.-.} { -.$.@.F Y = O     ",
"  @ X.9.*.>.t.-.:.t.t.9.D U.M.v.m.b.Z.T.~.@.m.b.I.}.+XOX{.OX+X{.#X_.OX#X{..X{.D.N.m.oXK.K.m.Z.Z.s.J.`.:.:.$.1.} &.;.@.*.t *     ",
"  O X.y.9.>.:.-.*.:.>.q.h T.2.M.A.m.m.H.T.1.S.D.~.].{.OX+X_.|.|.+X{.OX+X{.+X{.^.D.m.|.W.F.Z.$.m.s.Z.K.S.t.t.:.t.=.<.;.2.K O +   ",
"  O o.q.>.*.$.$.*.q.:.a.B R.;.G.D.n.D.J. X;.b.Z.].OX+X+X+X{.+X+X_.#X{._.+X+X|.|.D.d..XoXS.N.$.J.b.d.d.J.:.a.$.:.&.;.2.t.! O     ",
". O o.:.:.$.$.*.>.%.u.>.a ~.2.M.N.b.m.T.XX@.M.S.OX+X|.{.+X+X+X{.+XOX+X+X{.{.+X|.V.M.#..XT.m.M.Z.s.M.!.F.8.:.:.$.*.-.3.d.! >     ",
"X O ..>.*.*.$.*.-.8.o.e.u R.1.M.b.N.N.T.@X{ n.G.OX+XOX{.+XOX+X{.{.OX+XOX{.{.+XOXS.m.=..XJ.S.s.F.v.Z.W.H.y.7.5.' ` ] q.6.P @   O ",
"  O P +.o.o.] o.` O.5.R r u 2.A.n.N.m.D.oX=.n.H.{.+XOX+XOX{.OX+X+XOX{.OX+X+X+X{.S.M. .oXJ.m.N.D.v.s.E.I.U J s r q > q 1 ,       ",
"X   7 h p h h B Z Z p g : u p.d.D.a.G.H.(.=.b.Z.E.{.{.{.{.{.{.{.OX{._.OX{.{.{.E.S.h.oX~.F.m.$.V.p.A.p 4 t 5 y q 3 - @ O X       ",
"  O y ^ o.%.%.&.o.o.7.I U.I.u.v.D.Z.b.W.W.} G.S.D.[.+X+X{.OX+X{.{.+X+X+XOX.X{.D.Z.m.'.~.J.S.M.Z.v.a.Y.c 2 d T 7.' ' R J w @     ",
"  @ z *.*.&.%.$.:.$.9.8.C.'.1.3.S.b.S.b.T.S.,.b.N.~.|.+XOX{.|.+X+X+X{.|.OX{.`.z.N.1.XXD.N.u.H.Z.c.(.E.J J J O.a.2.p.a.8.H =     ",
"  @ L 8.:.:.:.8.$.t.:.:.H.~.M.x.b.{ n.N.R.W.{ G.A.D.^.{.+X{.{.OXOX{.{.+X{.T.D.N.s. X!.T.N.S.G.s.<.(.C.! J ! t.t.4.3.2.t.Y , X   ",
"  O R q.>.:.=.@.:.q.$.~ 1.H.K.1.p.H.n.D.b.T.K.{ b.S.S.~.].{.OXOXOXOX{.{.Q.S.Z.b.-.{.J.m.Z.d.M.s.M.W.T.O.H ! y.a.s.<.1.y..., X   ",
"  O R >.:.:.-.1.&.*.$.! 8.J.v.v.p.b.} n.Z.K.G.1.,.b.S.S.I.~.}.|.|.{.~.D.A.G.b.,.|.T.U.N.M.S.s.2.W.W.P.] ] } 8.-.;.:.p.u.O.: @   ",
"  @ T q.$.&.$.;.&.o.%. . .;.J.(.3.Z.Z.b.Z.m.K.^.,.} G.v.Z.H.S.H.S.Z.J.m.m.Z.( oXW.D.A.m.b.S.b.m.W.A.t...U [ *.-.=.1.-.w.+.,   X ",
"  O Y 8.$.#.o.$.%.O.q.o.%.u.T.W.s.,.H.b.a.A.d.T.K.K.} ,.A.v.v.N.S.m.u.M.=.@.#XD.W.S.b.:.S.u.1.W.).T.t.! Y 8.w.%.$.o.^ Y P =     ",
"    v +.O.$.%.&.*.*.o.Y o.9.Y.U.(.1.s.Z.( M.S.m.H.G.!.S.} =.1.{ ( #.1.=.XXW.D.W.Z.b.b.G.m.u.M.T.D.t.` J J ' o.' X.T g > - X O   ",
"    q K I K I K D j P g v P j Z T.v.1.a.Z. .d.m.A.A.W.T.W.(. XXXoXXXW.!.D.J.H.m.b.N.J.Z.s.t.R.B Z t < = @ @ - 2 q > - O   O O   ",
"    7 k D I I D ^ U j : : t g k Z.^.m.2.u.Z.Z.d.b.D.n.s.W.F.Z.K.J.D.J.D.Z.Z.b.b.=.m.d.2.s.!.~.I H H v g w e w w q 1 1 O O X     ",
"    g .. .*.*.>.:.*.6.t y 6.+.w.T.D.J.Z.2.2.S.S.} a.n.D.M.A.V.Z.C.Z.A.n.S.u.b.Z.m.a.M.u.!.^.C.t.t.8.8.8.%.O.[ [ ' P x y 2     X ",
"    m *.&.;.$.=.:.q.0.g y O.w.:.t.T.^.J.s.3.1.M.Z.G.{ m.N.a.A.d.a.N.n.A.( M.S.m.a.t.p.K.!.J.>.>.y.:.:.a.t.-.=.:.o.( L v x O     ",
"  O Y >.;.2.;.,.:.-.w.k 8 O.&.q.t.8.J.D.(.K.s.2.2.p.Z.S.A.N.n.n.N.b.b.N.S.Z.t.p.0 N.J.K.H.4.d.:.9.>.9.>.:.>.:.$.=.} K b b O     ",
"    U *.:.:.$.-.*.9.*.k w X.8.>.>.:.:.a.D.~.W.W.v.3.:.s.4.G.Z.N.Z.Z.M.3.v.1.t.m.y U.J.K.>.t.:.t.q.w.*.8.$.:.&.&.=. .K g m -     ",
"    Y :.;.%.( o.] o...j t 6.9.t.>.q.:.&.a.D.F.Q.K.~.N.t.v.,.<.1.2.2.3.v.s.W.J.~.4 ` :.u.t.-.-.*.:.*.o.] ^ &.*.-.( ( K j x @     ",
"    H &.$.$.( o.o.o.o.H q +.*.:.%.%.*.$.( o.q.I.T.C.Q R.H.).W.(.W.K.K.K.s.T.J.U.j K q.t.p.$.8.} &.%.o.o.^  . .) Q Q Z w d O     ",
"  @ k *.$.%.Q I ^ ( +.Y 7 ..*.*.>.o.$.$.%.$.*.i.8...j D.H.H.K.H.J.G.).J.H.) w.^ g J 8.8.$.%.*.$.^ ..o.o.^ o.] ` ( Y g 1 #       ",
"    k +.o.o.o.o.o.` o.Y t E o.*.` [ o.` O.8.+...' ` c _ i.1.p.s.u.d.:.p.:. .%.^ w k O.o.` *.[ $.%.O.$.' ` ] } [ | P e @     O   ",
"  O v +.+.+.*.9.O.7.+.L t X.6.o.$.8.w.%.o.o...O.7.E c E 7.w.*.8.8.*.t.%.w.>.o.Y e g +.o.] ] ! ] ! ! U Z j j H V g w - = #   .   ",
"    v +.X.P P L H ! ` j 7 E ..U I H Z H H j u j j r r P T ! _ K _ _ ' I L Y k v # 1 L I ! Q K ~ D I ^ ! ! U ! U h 8 7 w , @ O   ",
"    > f p 7 t 8 8 8 p 7 @ : : 8 p j H L K K H I I Y 5 5 r r p t s p r j 8 9 8 8 # O f k K ] Q D $.&.t.9.q.8.q.8.;.Q h g 1   X   ",
"    = r 4 4 u u i M F 8 * - p D K %.p.a.t.p.u.u.u.q.y 7 p a h S B D A A F S h p & + w f 9 i B Q } t.a.*.( :.2.t.;. .) h 7       ",
"    , y u u C C / / ( 8 O l +.u.*.9.p.:.;.;.>.2.1.@.p j ]  .=.=.=.=.=.#.#.#.] h . & y s h B Q @.d.m.b.:.$.$.( / F N M i t O     ",
"  @ = J o.$.b.Z.s.a.8.w O x 0.t.a.t.1.1.2.2.>.;.1.{ D ^ 8.:.2.4.v.3.3.x.<.3.:.h $ # 2 K $.1.t.2.s.p.u.-.^ Q I ~ G A A B r @   O ",
"    ; X.C.a.s.s.d.t...,   z 0.8.8.8.q.8.o. . .*.t.&.I 9.&.t.2.u.s.p.p.s.3.d.t.J   O > U 9.:.:.>.t.t.q.` h 9 g Y :.2.2.^ r       ",
"    , 0._.P.V.l.l.7.n @   l 0.e.6.6.5.E n k L | o.R n +.O.e.w.q.i.f.f.k.i.9.Y 2 . X O v w.q.9.*.6.X.R g 1 7 w z Y O.9...y O     ",
"  O   , g q 1 < ; @     # - e 1 y 1 @ O O @ O @ > - , 2 y s g w w y 1 ; 6 = @ +   . @ * : > 7 7 1 - =         @ O * : w =       ",
"                  +     +   O       .                   O O       @     =                 O @ O     @ X   X         O @ X       ",
"+ +   O .     .   +     +               X .               O                     .   X                 . o O       X             "
};
