/* XPM */
static char *_4e5b3562fc6491de26f623b7b379ef5wLg69cBg92XlDONC[] = {
/* columns rows colors chars-per-pixel */
"64 64 213 2 ",
"   c #010102",
".  c #0C0604",
"X  c #03050A",
"o  c #06090E",
"O  c #09090C",
"+  c #060913",
"@  c #0A0D14",
"#  c #040A19",
"$  c #090D1B",
"%  c #0D121B",
"&  c #121117",
"*  c #12141F",
"=  c #1D1D1E",
"-  c #2F2117",
";  c #2E251D",
":  c #30271F",
">  c #372B1F",
",  c #39291E",
"<  c #070F21",
"1  c #0D1524",
"2  c #0B1429",
"3  c #0D182F",
"4  c #131623",
"5  c #121823",
"6  c #181B23",
"7  c #10172A",
"8  c #141B2D",
"9  c #181A28",
"0  c #081B38",
"q  c #131E34",
"w  c #181F32",
"e  c #1C2128",
"r  c #1B2334",
"t  c #16213D",
"y  c #1C263B",
"u  c #1F283F",
"i  c #222326",
"p  c #2E2722",
"a  c #2D2923",
"s  c #23252B",
"d  c #2C2D2C",
"f  c #322A24",
"g  c #2F302D",
"h  c #31312E",
"j  c #3B332C",
"k  c #242835",
"l  c #242C3C",
"z  c #2E3034",
"x  c #2C3139",
"c  c #343433",
"v  c #3A3732",
"b  c #373837",
"n  c #3C3C3C",
"m  c #453225",
"M  c #493426",
"N  c #493429",
"B  c #48392C",
"V  c #543B2C",
"C  c #433C35",
"Z  c #59452F",
"A  c #45423A",
"S  c #5E4631",
"D  c #594838",
"F  c #644532",
"G  c #694534",
"H  c #684C35",
"J  c #6A4C35",
"K  c #6E4A3A",
"L  c #725037",
"P  c #75533B",
"I  c #7C533B",
"U  c #7C5B3E",
"Y  c #122343",
"T  c #1A2742",
"R  c #1E2C45",
"E  c #182C4F",
"W  c #232E45",
"Q  c #273145",
"!  c #2C3343",
"~  c #26334C",
"^  c #2A334B",
"/  c #2F394D",
"(  c #343945",
")  c #333C4D",
"_  c #203352",
"`  c #2A3651",
"'  c #2D3B55",
"]  c #273A5C",
"[  c #2D3C5C",
"{  c #323D54",
"}  c #323F59",
"|  c #2C3F60",
" . c #38404C",
".. c #364156",
"X. c #3B4556",
"o. c #34425C",
"O. c #39455D",
"+. c #33485E",
"@. c #3D4A5C",
"#. c #354564",
"$. c #3A4661",
"%. c #3B4A65",
"&. c #324669",
"*. c #3B4B6A",
"=. c #3D516E",
"-. c #374E71",
";. c #3D5171",
":. c #39517A",
">. c #434343",
",. c #4A4B46",
"<. c #464848",
"1. c #4B4C4B",
"2. c #584E45",
"3. c #52544D",
"4. c #444852",
"5. c #504D51",
"6. c #4F5153",
"7. c #525352",
"8. c #575756",
"9. c #5B5B5C",
"0. c #685543",
"q. c #765A45",
"w. c #7E5B43",
"e. c #5E605A",
"r. c #7B6149",
"t. c #64645E",
"y. c #716B5A",
"u. c #414D65",
"i. c #414F6D",
"p. c #4A5465",
"a. c #44526D",
"s. c #4A556D",
"d. c #585C65",
"f. c #445574",
"g. c #4B5775",
"h. c #4B5975",
"j. c #435778",
"k. c #46587A",
"l. c #4D5D7B",
"z. c #525E7B",
"x. c #5F6161",
"c. c #4F607F",
"v. c #556275",
"b. c #52617D",
"n. c #58647F",
"m. c #626363",
"M. c #676869",
"N. c #696B6A",
"B. c #6E6E70",
"V. c #716F73",
"C. c #737275",
"Z. c #76747A",
"A. c #79767A",
"S. c #7C797D",
"D. c #81553B",
"F. c #855B3F",
"G. c #8A5C3E",
"H. c #825D43",
"J. c #8B5F42",
"K. c #846245",
"L. c #8D6243",
"P. c #846249",
"I. c #8A664A",
"U. c #8B6A4B",
"Y. c #906545",
"T. c #936945",
"R. c #926548",
"E. c #92694B",
"W. c #8C6B51",
"Q. c #826F5B",
"!. c #936D52",
"~. c #8D7358",
"^. c #967354",
"/. c #9C7455",
"(. c #9D7955",
"). c #957658",
"_. c #9B7558",
"`. c #A27958",
"'. c #807B7F",
"]. c #A4825A",
"[. c #A7865B",
"{. c #AC8D5E",
"}. c #AD905B",
"|. c #AB8C61",
" X c #4C5D80",
".X c #4F6083",
"XX c #546483",
"oX c #576987",
"OX c #5B6985",
"+X c #566789",
"@X c #576C8C",
"#X c #5A6989",
"$X c #5B6E90",
"%X c #5E7192",
"&X c #606F8A",
"*X c #68758B",
"=X c #7F7C82",
"-X c #657798",
";X c #837E84",
":X c #768496",
">X c #7E8EA9",
",X c #848186",
"<X c #89868B",
"1X c #8D8B90",
"2X c #958F96",
"3X c #959296",
"4X c #98949A",
"5X c #9D999D",
"6X c #9F9BA1",
"7X c #A19DA3",
"8X c #A8A5A9",
"9X c #ADA8AE",
"0X c #B0AAB1",
/* pixels */
"        .   . . . . X             . . . . . . .   . . . O . . . . . . . . . X             . . . . . . . . . . . . . . . O       ",
"          X X X X O       . X                                             X       X X         X                                 ",
"    + q ~ o.#.#.#.O.X.6 X     X $ 3 3 3 q r 1 1 T _ ' [ | ] ' R 3 T T R ~ / u 1 X     # r _ _ o.+.o.o.' ~ ~ y t t _ ] ..x       ",
"    k u.h.l.l. Xl..X*Xz.X X r $.p.h.b.OXh.a.a.%.oX#X#X%X-X%X$XXXu.z.f.z.XXXX-Xu.X + r u.l.@X%X&X&XOX&XOXoX+X.X X;.oX-X>X:X6     ",
"  X %.l.h.h.l.l.XXOX&XOX< $ @.v.h.b.XXoXc.c.l.h.oXc.l.j.oXXXXXl.=.h.z.XX#X@X-Xu.< $ @.z..X@X+X+XXXXXc.XX.Xl..X*.j..X%X>X*X@     ",
"  X 4.z.l.l.k.f.f.l.z.f.3 7 s.XXc.c..Xc.c.b.c.k.l.XX Xf.;.XXXXl.f.c.b.b.XX.XXXl.3 q h.OXXX+X.Xl.#XXXk. X+X X.X Xk.XX%X-Xv.X     ",
"  X %.b.l.l.k.l.b.l..Xz.y ^ OXz.c.c.XX.Xl.b.c.l.c..Xk.l.l.k.XXh.h.OXb.z.XXl.XXf.r / OXXXoX.X+Xl..XXXXX.X.X$X.X.XXXk.h.*./ +     ",
". X s..X.Xl.l.l.XXl.z.z.l O.&Xl.c.c.k.l.c.c.XXl.XXl.XXXXXXXXoXb.*.XXz.z.z.z.XXz.y ..*XXXoX.X XoXXXoXXXl.c. X+X+X+Xl.f.a.r o   . ",
"  X u.z.g.l.l.l.l.l.l.f.q } OXz.b.l..XXXl..Xb.f.b.z.s.1.>.c 1.1.n ,.b h.h.h.z.g.t o.&X+XoX.X.XXX.XXXz.XX#Xg.z.+X.Xh.f.=.W +     ",
"  X u.z..X.Xl..Xl.z.XXz.T } z.z.XXc.l. Xa.%.d.,XM.8.V.4XS.1.6X3XN.A.1.c ,XC.b ..8 ( z.h.XXXXXXoXXXz.+X+XXX#XXX+XXX.X@XoXu.%     ",
". $ s.b.XXl. Xg.c.b.XXf.q O.z.z.b.c.XXX.8X3XA.1X;X9.9.B.N.>.c =XN.1.b 8XN.N.7.h b ;X4.n.c.b.XXoXz.XXXXXX+XXXXXXXl.;.@X%XXXe     ",
"  $ z.OXb.+X.Xg.c.XXOXh.t u.OXz.b.XXc.) 8X=X7.B.N.m.n t.M.m.,.M.m.>.1XN.N.9.1.c 9XM.b OXXX#XXXXX+X+Xz.+X+X+XOXz.h.=.%X%XOXe     ",
"  $ h.XXXXXX.X+XXXXX+Xg.q O.z.z.l.h.>.C.N.N.x.b 8.>.b f f a f f a f ,.8. .n g 5X5XC.N.>.X.b.XXXXb.XX+XOX+XOX+Xn.s.' k.-XOX*     ",
"  # h.XXXXXX+XXXXXz.#Xz.3 u.n.XXb c N.N.N.6.c c ; ; p q.r.H.P r.r.K.B ; ; ; d >.7.,XN.8.>.f XX#XXXXXXX#XOX+XXXz.u.o.q W  .+     ",
"  # l.#X+X+X+XXXXXz.h.u.4 { g.X.h h 1.N.1.c p - /.J./._._.).L./.(./.^././.L.m - g 1.8.1.c g ( l.z.l.f.h.g.z.XXz.h.{ r 4 * O     ",
"  # h.c.k.g.k.f.i.*.%.' 2 { u.) 9X7Xc >.1.f L /./.L././././.T./.H././././.T././.> 1.5.h 8.5X>.l.l.h.z.OX.Xl.l.z.l.u.O.6 $ o     ",
"  X a.i.#.#.#.u.#.f.s.%.8 { @.,X,XC.7.c p P !././.L././././.L./.K `./././.R.`./.!.m f N.9X;XM.( g.z.z.h.g.g.i.*.f.i.$.7 @ X X   ",
"  X $.%.#.#.#.} o.o.o.` t X.4.B.B.M.>.p V ].K !./.L././././.T.^.G `./././.R././.^.K.N >.;X3.m.<.} %.} O.} } $.i.$.i.$.8 $ O     ",
"  + ..u.%.o.` [ ' ' o./ 8 .. .N.N.1.>.: ).P [.P J L._.(././.R./.G [././.^.R./././.E.M f c <.7.1.! u.u.$.$.i.} %.} $.` 7 % X     ",
"  X ..#.} } ' ~ ' ' o.{ 8 Q x  .<.>.p U./.F.K ).].L L U._./.R.G }.`./././.R._./.^.R./.: v <.<.>.( $.} o.[ ` ` Q ~ W 3 2 $ O     ",
"  X o.O.O.o.} o.o.{ $.' e k o.4.3.h B )./.J./.U r.K.K.U.H./.R.G |././././.R././.^.R./.J a 3.A.2XN.} u.i.p.a.i.i.%.s.^ l 7 X     ",
"  X ..%.} [ ' { ..$.%./ 1 c 6.b =Xh D /./.J./.L./.L.w.[.F L Y.F `./././.^.R./././.E._._.; M.1XB.m.p.g.s.p.i.i.i.a.p.X.) s +     ",
"  X p.h.u.@.%.a.#.X.@.{ 1 c 6.;X1.h F (./.J./.J./.L./.J |.(.F ^./././././.L././.^.E./._.p 6.N.N.<.w q w 3 3 w q 1 $ 1 k e o     ",
"    w Q Q Q l l k r y k i 5XZ.m.h , /._./.J./.R./.L./._.L w.(.U L L./.`./.R./././.E./.(.K.a m.N.m.n } } } u.u.4.) y r l 6 O     ",
"    O o @ % 8 5 8 * @ # e N.N.7.h > /././.J./._./.L./././.^.D.F.|.U.U././.Y././.^.E././.K.: x.N.8.C g.g.g.g.g.z.h.u.t e @       ",
"    5 x ! ) { ..o...{ ! i N.t.1.h > /./._.J./././.L././././.Y.!.L K.w.K /.Y.`._./.E.L./.K.p x.3.1.( i.i.j.a.i.f.s.X.l 9 #       ",
"  X l %.%.*.a.*.a.=.s.u.s c c c h , /._./.L./././.L./._./.`.G././.I ).|.G w.^./.^.E.I.).e.a c b c c f.*.#.;.#.g.*.[ ~ k %       ",
"  o / @.$.a.a.f.a.a.s.@.s 3X1X1Xh f /././.L./././.L./.(././.T././.L.H.w.^.U.w.V 3.3.3.3.h a 5X7X=X1.i.;.%.| | | #.#._ R $       ",
"  X O.u.u.f.f.*.=.a.f.u.k 0XV.d.h , /./.(.J./._./.L./././._.Y././.Y././.K.I K.c h ,.3.c 8.p ;XV.5.v %.&.*.*.&.*.#.-.&.;.8 X     ",
"X X @.f.i.*.#.#.*.*.*.*.s ,XN.7.h , /././.L./././.T.`.`.J.(.Y.^./././././.Y.^.c g c h g h p m.1.c ( $.%.i.f.i.i.%.&.-.;.Q X     ",
"  X $.s.*.%.%.#.*.*.*.%.k N.N.7.h f (././.J._././.T.]./.J./.R././././././.R././.!.F ).[.v p m.1.b n #.%.%.*.*.*.&.*.-.j.^ X O   ",
"    o.*.$.%.o.%.*.=.s.u.s 3.<.C h , /./._.J./././.T.].E.R./.R././././././.R./././.U w.w.w.: 1.n n c } %.#.%.%.#.#.-.;.j.{ +     ",
"  X +.a.*.%.$.$.u.u.u.%.i 1X;X9.h , /././.J././.`.T.].G././.L././././././.R./././.R./._.P p S.<XM.A u.p.p.$.u.{ { [ j.%.W O     ",
"    ~ O.#.} } [ } } O.{ s ;XS.N.h f (././.L._././.T.].L./.`.Y././._./././.R././.^.E././.I.p Z.,XN.,.! Q ^ k w 9 4 & & & @       ",
"    5 r q q T T T W w 7 i <XN.8.h , /._./.L./././.Y./.G././.Y.!./._.`././.R./././.R././.K.: S.N.M.>.5 4 * * * 9 = & . . X X     ",
"  X 9 { O.#.#.} #.} $.Q z 2XM.x.c , /._.^.J./././.G.E.G././.Y././././././.R._././.E././.K.: <XM.M.>.X.r 9 w / u.} } { l * X     ",
"  X r %.i.i.$.#.$.%.u.O.x N.m.1.h > (./.(.L././.^.D.L.J././.Y././././././.Y././.^.E././.K.: m.M.3.n u.! l W %.k.a.:.;.a.l o     ",
"  X ! a.#.;.*.*.&.%.%.} x 1.5.1.h , /././.U P././.D.U./././.Y././././././.R.G./.^.E././.K.p >.1.<.n i.{ Q ^ i.k.k.j.:.f. .%     ",
"  X / a.*.*.*.#.;.i.#.~ x >.n b h , _.).!.P U.~./.D.U.(././.Y././.`././.`.Y.K `./.E././.K.: C >.b c f.} ^ ) g.i.:.:.f.k...@ O   ",
"    ' =.*.*.*.%.| i.$.~ x 0X1XB.h f ).y.,.g A J (.I L.(././.Y././././.`.!.Y.K [.^.E././.L.: 5X4XC.1.i.{ ^ } i.*.-.=.;.h.o.%     ",
"  X ' *.$.*.#.#.o.%.%.' x 0XB.7.h , `.y.~.J C W./.I H./././.R.|././.`././.R.K [.^.R.`./.K.: 5XB.M.C i.O.Q $.i.#.&.*.*.f.X.%     ",
"    ' *.%.#.[ &.#.%.%.} x ;Xx.Z.h , Q.~.(.D.E.A /.L././././.Y.{././././.!.I `.`.^.T././.K.: C.N.m.n u./ ^ u.s.#.#.+.' ) ! %     ",
"    Q O.#.+.$.%.#.O.%.{ z V.V.1.h , 0.!./.D.^.A /.L._./././.T.{./././././.I `./.^.E././.K.: e.N.x.n / l Q ) { ....) y # O X     ",
"    1 W Q _ ~ R W u Q e s m.m.m.h f P.D /.H.H D /.L././././.R.{.`././././.I /././.R./.`.K.: m.8.1.n 1 $ @ @ % 4 1 % O       .   ",
"  X * l R W ~ R ^ Q t 1 i h c h h , /.U.v j D ^./.L././././.Y.{./././././.R././.^.R././.I.: c c c c u w 9 9 9 4 * & o o o       ",
"    e { +.%.#.*.=.*.%.8 i ,X8X9.h , /./.(.D.P././.L././././.Y././././././.R./././.E././.K.: Z.9XA.n *.a.%.#.o.{ / ~ Q 5 & O     ",
"    Q *.&.*.&.*.*.u.u.r i 0XC.N.h f /././.L./././.J././././.Y.L./././././.R././.^.E./._.K.: 5XS.N.,.*.a.;.#.*.&.&.] ~ l s X     ",
"    ^ i.*.;.*.&.%.=.a.l i 1XN.9.h , /.T./.L.`././.L./.`._./.L.G [./._././.R././.^.R././.K.: ;XN.M. .%.a.=.=.*.#.&.o.Q l l O     ",
"    ~ %.%.-.%.&.%.*.u.y i 9XN.6.h > /.G./.L.].(.(.L././.`./.Y.G {././././.R./././.E././.K.: 5XN.t.n %.u.%.#.;.&.&.| R k l O     ",
"    ~ *.%.#.o.[ o.o.{ l i N.N.7.h > /.L.(.L.`././.G./.`././.Y.G {./._././.R./.(.^.E./.(.K.: e.N.m.n @.o.} } #.#.[ [ W y l O     ",
"    Q %.$.#.[ o.....+.W i  .1.A h > _././.Y.]././.L././././.Y.G {.`./././.Y./././.R._.).r.a n 7.A c [ ..} } } [ ' ` T w e X     ",
"    R %.o.#.' ^ ' o.+.W i V.B.B.j f /././.L.].(./.L././././.Y.G `././././.Y././.y.y.y.y.n a <X4Xx.>.o.o.} } [ / ' ` y # O       ",
"    y $.#.+.' { { o.o./ i ;XN.N.h , (././.L._././.L./.(././.Y.^./././.G./.L./.m b b v b g a 5XN.N.1.o.o.{ { } u.@.! 6 @         ",
"    l %.u.+.%.a.%.O.%.^ i ,XN.N.h , /././.L./././.L././././.L././././.G./.Y./.j h 3.8.c 9.p m.Z.N.<.Q R u u T y r 9 O X o X     ",
"    k X.{ ~ ^ Q W Q / r i C.N.7.h f /././.J./././.L.(./././.R.^./././.G./.Y.(.A C v B A f p Z.c S.n ` ~ W ~ ' ~ t 3 5 6 % X .   ",
"    % e r 7 2 1 1 3 t % e N.N.7.h > _././.L._././.Y.`././.`.T././././.G./.L./././.T././.2.p b Z.7.n h.a.f.a.f.i.#._ Y r %       ",
"    + 5 < < 2 3 0 Y E 3 = N.1.1.h > /././.L./././.D.U.(././.Y././._./.G.^.R././.!.E././.P.a h ;X1.n l.#.| %.f.;.#.o.] T 1 X     ",
"    @ 8 0 0 T E ] ] [ 8 = b C n h > /././.J./._./.D.U.(././.Y./.`././.G./.R./././.E././.K.p C >.n b l.*.#.+.[ ' _ 0 Y 0 1 X     ",
"    % l [ *..X.Xj.k.%.5 = Z.d.x.j , /./._.J./././.D.U./././.Y././././.G./.R.`./.!.E./._.K.p Z.C.M.( l.*.' ~ _ _ E E Y Y 1       ",
"    + X.XXh.j.l.l.h...% = =X1.9.h f /._./.L./././.I H./././.Y././././.G./.Y./././.E././.P.f m.N.M.C f.{ q q y ' -.-.:.| 4       ",
"    O p.:X&XOXb.v.u.l O 6 n Z.7.g f /._./.L./././.Y././././.H././._././.!.R././.!.R././.F a V.N.m.g ) r 5 % * k / %.*.o.9 X     ",
"      5 6 1 % $ $ o     = A.M.3.f , /.(./.L /././.J J./.R.K V /./././._.^.F././.!.w.I K V a e.N.9.g o         X   o + % @ .     ",
"                        = M.7.1.h : S S S , S S S , F S M m , Z F S S F S m F F V m m m m p t.9.n g     .           X .         ",
".       X   X .   .     = c v h h M M M M M N N M M M N M M M N M M m m m M M M N M M M M j c h g h   O O                       "
};
