/* XPM */
static char *_ec83f68fc3c4fd187ce4d2b4b06c54elEWHYxvhIvSKsZs6[] = {
/* columns rows colors chars-per-pixel */
"64 64 105 2 ",
"   c #1E0E03",
".  c #1E1005",
"X  c #1F120A",
"o  c #210F04",
"O  c #231205",
"+  c #2A1406",
"@  c #2E1907",
"#  c #25150B",
"$  c #2A160B",
"%  c #26180E",
"&  c #2C1A0D",
"*  c #30150E",
"=  c #321C0D",
"-  c #381E0D",
";  c #281614",
":  c #271913",
">  c #2C1C13",
",  c #2E1E1A",
"<  c #331E13",
"1  c #3A1D15",
"2  c #3B1F1B",
"3  c #3E230F",
"4  c #2E2114",
"5  c #2E211A",
"6  c #342113",
"7  c #3A2314",
"8  c #3E2916",
"9  c #34241A",
"0  c #3B261B",
"q  c #36281B",
"w  c #3D291B",
"e  c #3D2C22",
"r  c #412614",
"t  c #472B15",
"y  c #482C17",
"u  c #45271C",
"i  c #422C1D",
"p  c #492E1C",
"a  c #46311E",
"s  c #4B311E",
"d  c #53341E",
"f  c #432E22",
"g  c #4A2F21",
"h  c #452E28",
"j  c #443124",
"k  c #4B3424",
"l  c #45342A",
"z  c #4B3629",
"x  c #4D3A2A",
"c  c #523623",
"v  c #553A24",
"b  c #5B3B26",
"n  c #523629",
"m  c #543C2B",
"M  c #5B3E2B",
"N  c #533E31",
"B  c #5B3F34",
"V  c #5F4127",
"C  c #55422F",
"Z  c #5D422D",
"A  c #554133",
"S  c #5D4333",
"D  c #5D4B35",
"F  c #5B4A3A",
"G  c #6B4426",
"H  c #64442D",
"J  c #6C462C",
"K  c #64492F",
"L  c #6D4A2E",
"P  c #72472D",
"I  c #724C2E",
"U  c #794E2F",
"Y  c #72502E",
"T  c #634532",
"R  c #6B4631",
"E  c #654A34",
"W  c #6E4C32",
"Q  c #61473A",
"!  c #654B39",
"~  c #6B4E39",
"^  c #724E33",
"/  c #794E34",
"(  c #734F39",
")  c #6E5035",
"_  c #67513C",
"`  c #6D513B",
"'  c #745135",
"]  c #795236",
"[  c #765836",
"{  c #75533A",
"}  c #79553A",
"|  c #77583D",
" . c #7A5A3C",
".. c #644940",
"X. c #6E5442",
"o. c #6E5840",
"O. c #745641",
"+. c #795640",
"@. c #755A43",
"#. c #7A5B43",
"$. c #745A49",
"%. c #7C5F48",
"&. c #7E6048",
"*. c #805D47",
"=. c #82634B",
/* pixels */
"R W ( ( ^ W L W ) ) L K L L I Y ( ' L J J P J J P G G P P G G J R W ^ ^ ( W R ' { ' ' W L L J H n n T ~ H ( ^ L ' I L Y L L W L ",
"R J R ^ / ' / ' W W ) ' ' L L { ' W ^ ' ^ ( ( / ^ P P P ^ P / / ^ ^ ' ] { ( ~ { ' W L L ' L ^ ~ Q z Q ! ` ) ( ' [ I L G L L Y L ",
"/ / ^ ^ ^ ' ^ ' ' W ( ( W / ' { / ( ^ { } { { ~ { { ( ( ^ / ^ ^ Y Y ] ] ] ^ W ^ ' I L W ' ' { ` A f T ! ` ' ' ) I L ' ) Y ) ) K ",
"} } ] / / I ^ ^ ' ' ( W ( { / L ( / ^ ' { { { { { ( ( ( ' ^ ^ ^ ^ I ' Y ' ^ ^ ^ ^ [ ' ' ' ) ~ { N 7 n ! ` { L ' L Y ' ) L ) ) Y ",
"{ ' ' Y ' ' ' ' ^ ( ( W ( ( / ( ' { { } ( ( { ( { { ( / ( ^ ^ ' ' ( ' ( / ^ ^ ] ' ' ] ' ' ' W ` M 1 m ` ~ W ) ' { ' ' ' ) { [ ' ",
"L ' [ Y ' Y ^ ^ W ( ' ( ( / { ' ' ( ^ { ' { } { ( ( { { ' ( ( ' ' / ( / / ( / / ^ ^ ' [ { ` ` O.n 7 S X.( ~ { L W W ' ' ' ) ' ) ",
" .&. . .[ [ [ [ }  .#.+.+.} { ^ ' } ' ' +.+.{ +.{ { { { { { ' ' ( ^ ( ( ( / / ^ ^ [ [ { ` ) O.! C 7 c _ ` ~ ` { { { { | { | +.{ ",
"@.o._ K ) ) _ _ ` ! D T T T R ( ^ ' W J v v c y g c c b H ( { { ( W W / ( ] { ^ (  .) ` ` ` $.B i w m X._ ~ R @.@._ _ _ X.` _ ! ",
"e 9 9 6 6 q j j l e 9 0 9 6 u n L G E v 7 = 6 , , 9 < < 3 H ' ] ' [ L J J ' { ' ( ( W T n B Q h ; e e N x x k k a k f u j j f f ",
"X # % , 9 6 9 9 < q 9 6 > & < k L L L m 7 & , 5 5 < > = r J { { ' ' ^ L J L ^ W W ~ T M u 1 2 * > ; O & 6 9 7 6 & & & = < < = * ",
"4 + @ & 7 7 r i f i 6 < = = 7 H ' [ R b 7 = 4 5 < 9 w k c R ' [ ' ^ ( J G H J W ( ( R M g 1 ; $ ; < > < 7 < 6 = @ @ + + + + + + ",
"S C M M H Z H T E Z s y t t v { { W L W V - = 7 < i M ~ ~ [ ' I ' ' ^ L J J W ( ~ ( ~ R T B M m S M S T ~ E V K m Z S D T S ~ ` ",
"| | #. . . .} ' ) { { { ' ( W ' ^ { [ { { W W R ( ( ( { / { ^ ] ' { ^ ^ ^ ( ' ^ ( ^ [ { { @.+.{ @.{ [  .[  . . .[  . .#.} [ }  .",
"[ ' [ L Y ' ] / { { } } ( [ } [ } } ^ ' ( / } / } / / } } { ^ / ] { ( / / { ' L ^ J W [ L W ' ^ L J Y Y G Y Y Y Y Y ' ' [ ] U Y ",
"' ' ' I ] ] / / ^ / / { ( / ^ ^ L ' ^ ^ ^ / ^ / / / / / / / P ^ ^ ^ ^ ^ / ( P J ^ I ' ' ^ ^ [ { ] ^ L I P ' ' P ' [ ^ ^ { { [ ] ",
"[ ' ' I ] / ^ ^ ^ { ( W / { ^ P ^ ^ / ^ ^ W ^ ^ / U / ^ / / ^ P / P U I ^ L I ^ L ' ' Y ' I ' ' ^ ^ ^ ^ ] P I ^ ^ ' / ^ / / / } ",
"^ ' ' [ } Y ^ I ^ ' { / ^ ^ / P / ^ P I I ' ^ / P P U P ^ ^ / / ^ ^ P ^ I I ] ' ^ ' { ' ^ ( ^ ^ P / ( ' ' ' ^ ^ ^ ^ W ^ ' ' ' ^ ",
"( / ' ' [ I L ' ^ ^ ^ ^ ^ / ^ / U / ^ ^ ^ ' ^ / / U / / ^ ^ / / ^ ^ ' ] ' ^ ' ^ ^ ^ / / ^ / ' ^ / / ^ ^ ' / ' ' ^ ' ^ L W ' / I ",
"W W } ' [ ' Y ' I ^ ^ ^ ^ ^ ^ ] / ] / L L W ' [ / ^ / / ^ ^ / ^ / ^ ' Y I ] I I ^ P ^ ^ ^ ^ ] / / / ^ ^ ^ W W / ^ / ^ ^ W / ] / ",
"L W } ' ^ Y I Y ^ ^ / / / P P U P ' / L ' ^ ^ ^ ^ P ^ ^ P J W / ^ P P P P ] ^ I / P I ^ L ^ ' ^ W ^ ^ W R J R / / W / ( ( / { / ",
"W ' ' ' ^ I ^ ] ] / ^ ^ U ' Y G P ^ ^ / { ' W W / P I U P ^ / / ^ J L J L ^ P ^ ( ^ ' ^ R ( / ( P ( ^ ^ ( R P ^ / P ^ ' ^ ^ / / ",
"^ { ^ ' P ^ ^ / / ' ^ ^ ' ' Y L ' / P ^ ] / ^ [ ^ U / / / ^ P U / ^ ^ P W W W L ^ ^ ' ^ W W ~ ( P / ( / / R P ^ / ^ P I ^ P / / ",
"/ { W ' ^ ^ I ^ Y I I Y I I Y Y I I / / ^ ' W I I P U U P U U P I I P / / / ] ^ L ^ ^ W / W W ^ P ( / ( / W P / / / ] ^ / I ^ / ",
"{ W ' [ ' [ I I ' I ) ' ' Y ^ ' Y Y ^ ^ ^ ' ' ) ^ / / U I P U U I I P ' / / / ^ I I J I ( ^ ^ ( ( ( ^ ( ( W ' U U I ' ' ' ' I P ",
"' [ [ ^ Y { ' ^ ^ ' ' ^ ' ' ^ ^ I ' ' { ( ~ W L W ^ ^ ^ ( ' I U U U ] ^ / P / ( Y ^ I I ' ] / / ^ ^ ^ W ^ ^ I I I Y ' ' ) { Y ' ",
"Y ) [ ' ' ' ' [ / ^ ' ' { / ( ' { ' { ~ ! ~ ~ ~ W { { ^ { ( ^  .U ] / / ] { ( { [ [ } ' [ ' ( P P ( { ( W ' [ I I ' ` W ~ E { [ ",
"[ [ [ [ { } [ } } [ ' [ [ [ } W T { ~ S r = n E ~ ~ O.X.X.` { H J ' { W O._ E ~ K K ` ) } { +.^ W L W ~ R ( ^ ( ' W ~ ~ o.| _ _ ",
"@.{ ` ~ ` @.O._ K K W W H H H R ~ ~ ..k # O = p M ! n z x S { +.' R H v n k k 0 6 6 8 v Z E O.+.{ ' ( T E +.{ ( [ R ~ z w i t C ",
"x e f e e f l w 9 @ w C a @ = S H Z F e $ % < i M Q = + = 7 T +.{ T c k 0 l l 5 > 4 4 C n M X.( { ( ( M M ~ ^ / { ~ c 7 & q j m ",
"e > ; > ; , 5 : : 4 e C a 4 z Q T Z n e 6 9 f k c n = o # @ T W ` R m f e h l 5 5 q 8 D B M X.O.} { ( T T R W { { { N w w x x x ",
"e , ; ; , e , : % 4 e D x @ m E H H Z f 9 j x M c B u + @ @ Z ' ' { b p f l l e q 6 j T b V O.} / { ( T H R W ' { ~ S j e A C C ",
"e 9 $ # , 9 ; > $ + C _ C s Z v b H y = 6 k X.E H g u = @ 7 H ' { ' c d g x j q 7 7 Z ~ J H } { / / J H H L L ' W R C l x j C D ",
"R T M M M C S ! _ ` ` ` ` { R b H H Z Z T E ~ @.R H b v b R { ' ' W L H b M M Z T R ( ( W ( / ^ J J L L L L J J J G H Z Z Z Z K ",
"| { { { { { | { { { #.{ | { ' W J R ~ W { { { { { { { { { { { ^ ' L W W ' ' O.{ O.{ { ( W / ^ ^ W W ^ ( ( ' ( ^ W ~ W ' ' ' W ) ",
"W { { ` ~ W ) W ) { { { ' ) ^ ' R W W ' { { { W ~ ( W ' ( ^ ^ W L L ' ^ ( ( ( / ( ( W W ^ ( ^ L W W ^ ^ ^ ^ ^ ^ W W ^ ( ) L W K ",
"{ { { W W { ' ) W W ) ' W ' ' L W W W ( W ` { W W W W ( ^ ^ L ^ ' L W L W W W R ^ W ^ ^ / ( L J L L ^ W W ^ L ^ ^ ^ ^ W W ' W ) ",
"' ' ( ' ' ) ^ W ' ' ^ ' ' ' ' L W W ^ ' ^ W ' W W ^ W ^ L W L L ^ W L ^ W ( ^ ^ ' ^ ^ ^ W W R ^ ^ L ^ W ^ ^ ^ ^ L I ' ' ' L L Y ",
"{ ( ^ ' ' ^ W ' ) ( ' W I ' W ' ' W L ^ ^ W W ^ ^ ( ^ L L ^ ^ ( ^ ' L W L ^ L ^ L L W ^ / ^ ^ ^ ^ W ^ ^ ^ ( ^ ^ ^ I ' ' ' L L W ",
"' ' W ' ' ( ( { ' ^ ^ ^ I ^ ^ ^ / ^ L ^ ( ' ^ ( ^ W ' ' ' L ' L ^ ( ' ( Y ' ' I W ' / / ^ ^ ^ ^ L ^ ( ^ ^ ' ^ ^ ^ ^ Y ^ I ' ' ' ",
"G L ' ' ' ^ ^ ' ' ^ ^ ^ ^ ^ ^ ^ ^ ^ ^ ^ / ^ ^ ^ ^ W ' ^ L L ' L ^ L ^ W ' L ' L ^ ^ W P ^ W W ^ ^ J ^ W ^ ^ L L ^ ^ L ' I I I I ",
"L ' ( ' ^ W ^ ' ' / ^ ^ ^ ^ ' ^ ^ ^ ^ P ' L ^ ^ ^ R ^ ^ W ^ ^ J L ^ J R ' ' L L Y L ' L W / W ( L L ' W ' ' L I ' ' Y L I ' I ' ",
") ' [ ' ^ ' / ] ' ^ ^ ^ ^ ^ ' ' ^ ^ ^ ^ ( ^ ^ W W W ^ ^ ^ ^ ' ^ ^ ^ ^ J Y W L Y W ' ' I ^ ^ W P W W ^ ^ L ' L ) I ^ L I ' I I U ",
"' ' { ^ ^ ^ W ( ^ ^ ( / ^ I ' L ^ ' / ^ L ( ^ W ^ W ^ W W W ^ W ^ W ^ R L I L ^ L ' I ^ L J W L ^ ^ W ^ ' L I ' L ^ ^ L ' I I ' ",
"' ' [ ( ' ( ^ ' ( ^ ^ / ^ ' ' ' / ] ( ^ W ^ ^ ^ ( P W ^ ^ ^ ^ ^ ^ ( ^ ^ ' ) L I L ' L ' ^ L ( ( ^ ( L L ' L W ' L ' ' ^ ' ' I ' ",
"~ ' ( ' { { { { ( ( ( { ' ^ ' { ( ^ ' ' / ( W ( ( ^ ^ W ^ ( ( ( ( ^ ^ ' W W W ) ) L ' W ' ^ ^ ( ^ ' W ^ ' L ' W L { ' ' ' ' ^ ' ",
"{ ` ' ' ' { ( { { { { { ' ( [ { ' ^ ( ( { W ' { ( ( ( ^ ( ^ ^ ( ( ^ W ' W ' ' ( ) L ^ L W ' L L ^ ' W ^ W ' ) Y ) Y ' L ^ ' ' I ",
"{ { { ~ ( ( ( ( } { { { { { { { { { { W ( ~ { +.O.( ( ( ( ( } ( ^ W ' ' W ' { ' ' W ^ ( ' ' ^ ' ^ ^ ^ ^ ^ W L ' L W W W L ' ' W ",
"` _ ~ E ~ ~ R ~ ~ ~ W ` ~ ~ ` W { } { { { +.O.` O.( X.X.X.! ~ ~ ~ ~ ` ` ` ` _ ~ ~ _ ~ _ ` _ ` ` _ ~ ` ~ ) _ ! ` _ W W _ ~ ~ ` ~ ",
"a i a w i u f i i r w 7 i i k b J L ) ` ` m r f f h z h j z j z j j j l x j e w q j a j l e l l k j j e e j j e w j l j a a w w ",
"6 % @ 4 6 < < < < & & = = + = s K L ) ) ~ m = ; # # ; ; > > > > , > > % : % : > % % > & > : & % % # % : % % % 4 # % % @ > % # # ",
"@ @ @ 6 * - - = = = 7 7 3 = t c R W W ~ ~ v = + < $ & + & 6 & > > $ & $ % & # $ @ # 4 4 $ O O . . . . . . # % O O . O . O O   O ",
"C v V V v v M B M S S Z Z E R W / / ( ( ` H c s k k m k k k k m m k f w y k k k a 8 k C C C k i i 7 4 4 j x A m C k C k z m N D ",
" .| | +.{ #.#.+.#.+.@.| +.{ { #.]  .} O.+.` ` ` O.X.$.@.%.@.@.&.@.#.#.+.*.+.#. .&.{ #.#.#.#.{ { | ` { $.&.&.%.%.=.&.=.*.*.*.#.=.",
"[ { ' } } +.+.} { [ { { { ' ^ { } } / } { { O.{ ` { | ` { ) { { { } { { } ]  .[ ' [  .{ { [ { } { { { { { ` }  . .} } }  . .{ } ",
"} [ } }  .} } } ' { } } ] [ ' ] { { / { } { ' ' ' { ) {  .{ ' ( { ] / / ' ^ ] ]  .} ] ' / ' } ] ' { [ { { } } } { { / ' } } } } ",
"} { } } } / { / [ } } ' ' ] ^ ' / ' ( ' { / [ [ ) ' [ ' { W / { ] ^ ' ( ] ] ' ] ] } ' ' ( /  .[ ' { ' { [ [ }  .' { ] / } } } } ",
"+.}  .} { ] ' ' { } { ' ' [ ' ' / { { { [ ^ ' ] [ ] [ ' { { ' ' ' / ' { / / ( ' Y [ ( ' } { ' ( { { { { [ ' } [ [ } ] ' ] } } } ",
"( / / { ] { ] ( ' ( ' ' { [ ' ^ ' [ ' ^ ' ' ' ' ' ' ' ' / ' ' ' ' { { [ { ' ' ' { ' ( '  .} ' { / { ] [ / ' ' ' ' ] ] ' ' ' / ] ",
"W ( ' { ( ( { { ' ) W ) { { ' ' ' ) ) W ' [ ^ ^ ^ ' ' ( / ( W { ( ^ ^ ' ' ' ' ' ' I L ' ' ( ^ ^ ^ ' ' ] ' I ' ' ^ / ] ] ^ ] ^ I ",
"' ) { { ^ ( { { { { ` { { ' ) ' ' W ' ' ' ' ^ ' ^ ^ ' ^ ( ( ' { ( ^ ^ ^ ^ ( ' ^ ' } { { ' } ' ^ ( / ' ' ' ' ' ' ' ' ' ] ] ' ' ] ",
"` ` { ' W W ' { ) { ` { ` ) ' ) ' ' { ' ' ' ^ ' ' / ' ' W ' ' { { ) W ' ( ' { { W { { { ` { { ~ { { W { { { [ ' { ' ' { ' ' ' ' ",
"{ ) ) ` ( ' ) W W ) { ' ) { ' ) { { ' W ^ ' ( ( ' ^ ( ( ' [ ' ' { W { ' ' ' ' ( W ( ` { { ` { { { ) W W { { { ( ' ^ ( ' ( ( W W ",
") ` ' { ' [ { { { ) ' ) ( W ' ' { { / W ( ( ' W ( ( ^ ^ ) ' L ' ^ W ' ' ' ' ' ) ^ P ( { { W / ' ' ' ( ' ' { [ ' { ' ' ] { { { { ",
") W { ' ) ) { [ { { ) ) ' W ^ W W { ( { { ( ^ ( ^ W ^ ' ' ' ' ' ^ ^ ^ I I I ' ' [ ' ] { ' / ^ ^ ' { ' { } { } }  .{ ] } } } ' ' "
};
