/* XPM */
static char *_311de1afe594f63a96c231c2e613e71Zvq0BKhvYnHjFkhR[] = {
/* columns rows colors chars-per-pixel */
"64 64 131 2 ",
"   c #000000",
".  c #1E0E02",
"X  c #1F1004",
"o  c #1F120A",
"O  c #171010",
"+  c #1B1414",
"@  c #210F03",
"#  c #221206",
"$  c #2B1506",
"%  c #2F1A07",
"&  c #22120C",
"*  c #2B160B",
"=  c #25180E",
"-  c #2D1A0C",
";  c #30150D",
":  c #321C0C",
">  c #381E0D",
",  c #271613",
"<  c #281715",
"1  c #271A14",
"2  c #2C1C13",
"3  c #261D1C",
"4  c #2E1E1B",
"5  c #331E13",
"6  c #391E13",
"7  c #3C220F",
"8  c #2E2015",
"9  c #2C211E",
"0  c #342114",
"q  c #3A2314",
"w  c #34241B",
"e  c #3A251B",
"r  c #3D291B",
"t  c #302624",
"y  c #3E2D25",
"u  c #3E2E28",
"i  c #3E302A",
"p  c #402717",
"a  c #482C16",
"s  c #45271C",
"d  c #422C1D",
"f  c #4A2D1D",
"g  c #42301E",
"h  c #4C311E",
"j  c #412E24",
"k  c #402F28",
"l  c #443124",
"z  c #4B3424",
"x  c #423129",
"c  c #4B3629",
"v  c #4D3A2B",
"b  c #523724",
"n  c #573A23",
"m  c #593C26",
"M  c #51372A",
"N  c #543C2B",
"B  c #5A3E2B",
"V  c #453630",
"C  c #533E32",
"Z  c #5A3F32",
"A  c #53422F",
"S  c #5D422D",
"D  c #554232",
"F  c #5D4432",
"G  c #5D4B36",
"H  c #5C4A39",
"J  c #6B4426",
"K  c #63442D",
"L  c #6C462C",
"P  c #6D4A2E",
"I  c #70472B",
"U  c #714C2E",
"Y  c #73502E",
"T  c #634533",
"R  c #6B4630",
"E  c #654A34",
"W  c #6E4C33",
"Q  c #654B39",
"!  c #6C4E39",
"~  c #724E33",
"^  c #744E34",
"/  c #774F35",
"(  c #794F34",
")  c #734F38",
"_  c #764F38",
"`  c #7A4F39",
"'  c #6D5037",
"]  c #6E5036",
"[  c #67513D",
"{  c #6D513B",
"}  c #6D513D",
"|  c #735132",
" . c #735232",
".. c #765133",
"X. c #735037",
"o. c #765135",
"O. c #775235",
"+. c #765437",
"@. c #785236",
"#. c #755837",
"$. c #735238",
"%. c #775038",
"&. c #735438",
"*. c #755538",
"=. c #70513C",
"-. c #71543E",
";. c #75543C",
":. c #78513A",
">. c #7A5538",
",. c #7B543A",
"<. c #79553D",
"1. c #78553E",
"2. c #77593E",
"3. c #7A5A3C",
"4. c #634940",
"5. c #6F5645",
"6. c #705540",
"7. c #755640",
"8. c #795742",
"9. c #765A42",
"0. c #7B5B42",
"q. c #745A49",
"w. c #7D5F48",
"e. c #7F6149",
"r. c #83634D",
"t. c #AC7B5D",
"y. c #1D438A",
"u. c #2C65B5",
"i. c #787E97",
"p. c #A4A8B5",
"a. c #C1AC8F",
/* pixels */
"R W ~ ) ~ W P {  .W W K P P Y ' ~ %.W L L L L I I J J I I J L I I W ~ ~ ) W E ) *.~  .~ L P P T m c T 4.T ~ ~ W ^ U Y P Y W P P ",
"R R R ~ o.~ ~ ~ W W ~ $.' P P @.%.~ ~ o.^ ~ ^ ~ ~ I I ^ I ~ ^ ~ ~ ^ o.@.%.%.W ) X.W P W  .W W W Q c T ! { ~ ~ o.,.U L J L P ' P ",
"_ ^ ^ ^ ^ @.~ o.~ ~ ~ ) ~ ~ o.@.%.~ W %.1.;.$.$.8.) %.~ ^ ~ ~ ~ ^ ....@.,.~ ~ ~ ~ ~ P ~ X.X.X.=.Z j F Q } $.$. .P P ' W Y ' Y P ",
",.,.@.^ ~ ^ ~ ^ X.o.) W ^ ,.^ L ~ %.~ X.;.;.$.=.) ) ) ) ~ o.^ ^ U U U ..^ ~ ~ ~ ~ o.X. .X.X.' { B q M Q { $.W o.P  . . .W Y ' ' ",
"o.^ Y  . . . .~ ~ $.) ~ ) %._ _ %.*.%.1.~ ~ %._ 1._ _ $.~ ~ ~ $.^ ~ ^ ~ ^ ^ ^ @.o.o.*.$.~ ) W 6.N 6 N ! ! ) W ^ o.+.o.' ' ] +.#.",
"U  . .#.@. . .' ~ W $.~ ~ ) _ _ o.~ ~ %.1.;.;.%.) ~ ~ $.%.~ $.%._ _ ` _ ^ ^ o.^ ^  .o.*.%.) ) 6.M q F } ! ! $.P W W X.&.' X.X.W ",
"3.0.0.#.#.#.#.+.;.0.0.8.1.1.%.~ o.3.X.%.0.;.=.1.) _ 1.1.;.;.%.~ ) ~ ) ) ~ ^ ^ ~ ~ *.$.&.$.} 6.Q N q b ! =.W { #.&.&.-.;.-.&.&.2.",
"e.[ ' E ' ' ' ' } Q T T T T E =.W X.~ K m b b z z z b m K ! %.$.) W ~ _ ` ,.( ~ ~ 3.$.W ! 5.q.Z j r C 5.} Q Q 9.9.{ ! } } 5.' ! ",
"y w w 0 0 e j j x l w e w 0 r M P K P m q : 0 2 2 0 5 > p K %.@.%.%.W P P o.,.^ ~ ) ! T M Z 4.k 5 t y C v c c z d z l r l z j z ",
"o o = 0 0 w w w 5 w w 0 2 - 5 z P W                   : p K         ~ P L L W ~ W ! T B s 6 s ; < < @ 2 0 0 q 0 - - - 2 5 5 * * ",
"2 $ $ : 0 q r p d j 0 > : : q K ~ o.                  z b P         ~ P L K L W ) ) T B z * ; * * 5 2 - q 0 % 0 - % * % * $ $ ; ",
"S D S S S K K E E S h a a a n &.*.~     n n n n m p p       n n               ~ ) ) ! R T Z F N F F F E ! E S U A B S F S T E ! ",
"2.2.0.2.3.3.,.@.W &.;.;.~ X.W X.P >.    n n n n m p p       n n               ~ ~ W $.$.=.0.;.-.;.^ #.3.#.3.3.3.#.3.0.3.3.3.+.3.",
"#.+.#.Y  .o.@.^ %.o.,.1. .%.,.,.,.3.    n n n n n r p       n n               W ~ W  . .W W ' ~ P P Y Y J U Y Y Y  . ... .@. .U ",
" . . .U  .( ( ^ ~ ^ ) :.o.~ ~ o.~ ~           n n n n p p p n n p p n n n n n     U  .^  .U o.,.@.~ P U L ( ..P ....~ ~ ,.,.@.@.",
"o. .o.~ @.( ~ ~ ~ ,.~ ~ ^ ` ~ U ~ U           n n n n p p p n n p p n n n n n      .@. .~ ~ o.o.~ ~ ^ ^ ..U U ^ ~ @.^ ~ ^ ( ( ` ",
"$.o.o.*.,. .U P ~ o.o.^ ~ ~ ~ I     p p n n n n n n n n n n n n n n n n n n n n n       ~ %.^ ~ W ( ^ ^ ^ @.o.^ ^ ~ U W  .@.^ o.",
"~ ~ o.~ +.Y U  .~ ~ ~ ~ ~ _ ( (     p p n n n n n n n n n n n n n n n n n n n n n       ~ ~ o.~ ( ^ U ~ ^ ^ o.^ ~ ( ~ W P  .~ ^ ",
"W W :.o.>.Y P  .U ~ ( ^ ^ ^     p p m n n n n n n n n n n n n n n n n n n n n n n n n n     %.^ ^ ` ~ ~ ^ R W ` ~ ~ ^ ~ W ^ ( ^ ",
"W ~ 1.o. . .U  .~ ( ^ ( ~ I     p p n n n n n n n n n n n n n n n n n n n n n n n n n n     %.^ R ^ W ~ R L R ^ ~ ~ _ ^ ~ ` ` ` ",
"R %.o.o...U ( ^  .( U ^ ^ @.    p p n n n n n p p n n n n n n n p p p p p n n n n n n n     %._ ^ ^ W ^ W R I ^ ( U ~ ~ ~ ^ ( ( ",
") ,.W o.U ~ U ( ^ ( ( U (  .    p p n n n n n p p n n n n n n n p p p p p n n n n n n n     W ) ^ ^ ~ ` _ ^ ~ I ( ~ ~ U U ~ ^ ( ",
"X.$.U X. . .U ^  .~ U  .U U     p p n n n n n p p n n n n n n n p p p p p n n n n n n n     W ^ I ^ ` ` ^ R I ( ( ( ( ^ ( U U ( ",
"+.' ' *.o.@.P U ..U ~ Y  .'     p p p p p p p p p n n n n n n n p p t.t.t.t.t.p p n n n p p     ^ ^ W ^ ~ ^ ( ( I U @.^ ^ ( U U ",
" . .+. .W ,. .~ ~ ..@.U o.o.    p p p p p p p p p n n n n n n n p p t.t.t.t.t.p p n n n p p     ^ ~ W ~ W W U U ( U X.X.W #.W Y ",
"P  .+.+. .~ ~ ,. .~ o.o.,. .    p p n n p p p p p n n n n n p p t.t.t.t.t.t.t.t.t.p p p p p     U ~ ;.~ W o.,.U U @.{ W W ' 2.*.",
"#.#.#.+.#.3.*.+.3.#. .o.+.+.    p p n n p p p p p n n n n n p p t.t.t.t.t.t.t.t.t.r p p p p     W L ) ! W $.~ X.^ P { Q 5.9.} E ",
"e.2.' ' { 9.-.{ S E W W K K     p p n n n n n t.t.p p n n n t.t.& & a.a.a.a.a.& &       p p     %.) ) T T 7.%.$.@.Q ! b r d a A ",
"z y y r y l x r q - r A g %     p p n n n n n t.t.p p n n n t.t.& O a.a.a.a.a.& &       p p     1.$.! B B ) ~ o.;.! M q - e l A ",
"y 2 < < 1 4 9 2 1 8 y A l :     p p n m n n n t.t.p p n n n t.t.& & a.a.a.a.a.& &       p p     %.%.) T T T R :.*.=.N r e v v z ",
"y 4 , < 4 w 4 2 = 8 y G z %     p p p p n n n t.t.t.t.p p p a.a.& & a.a.a.a.a.& ,           0.` ~ ,.) K K R ~  .$.! S l x A A A ",
"e w * $ 4 w 2 2 $ $ D [ A h     p p p p n n n t.t.t.t.p p p a.a.& & a.a.a.a.a.& &           :.:.o.~ L T K P P ' W R N z v l A G ",
"E T B B B S F Q { { -.} 6.=.R S     p p p p p t.t.t.t.a.a.a.a.a.a.a.a.a.a.a.a.a.a.      ~ :.^ ~ L L P L W W L L R K B K K S K T ",
"1.;.-.$.$.} +.*.&.;.;.;.;.*.~ W     p p p p p t.t.t.t.a.a.a.a.a.a.a.a.a.a.a.a.a.a.      ~ ~ ~ ~ ~ W X.~ ~ ^ ~ ~ ~ W W o.$.! ' ' ",
"W $.$.! W $.{ W W &.*.%.X.~ ~ W W W     p p p p p t.t.t.t.t.a.a.a.a.a.a.a.a.a.t.t.      ~ ^ ~ W P W ~ ~ ~ ~ ~ ~ ~ W ~ ~ W P P P ",
"$.%.$.~ W $.X.W W { X.' ~ X.~ P W W     p p p p p t.t.t.t.t.a.a.a.a.a.a.a.a.a.t.t.      ~ ~ ~ L W W ~ W W ~ L W W ~ ~ ~ W ' W ' ",
"%.X.$.~ o.X.'  .~ X.' ~  . .~ ~ ~ W     p p p p p t.t.t.t.t.a.a.a.a.a.a.a.a.a.t.t.      ^ W R ^ U W ~ W ~ ~ ~ ~ P ~ ~ ^  .P W P ",
"%.$.~ %.X.W ' ~ ~ X.X.~ ~ ~ ~ ~ ~ W W ~       p p p p t.t.t.t.t.t.t.t.t.t.t.t.    U ~ ~ W I ^ ~ I W ~ ~ ~ ~ ~ ^ ~ ~ ~  . .~ U P ",
" . .~ X.X.X.X.%.~ o.^ ~ U ~ ~ ( ^ U P ~       p p p p t.t.t.t.t.t.t.t.t.t.t.t.    ^ ~ ~ ( ~ ^ W ~ ~ ~ ~ ~ X.~ ~ ~ ~ U  .U ~  . .",
"L W ~ o.%.~ ~ o.X.~ ~ ~ ~ ~ ~ W ~ ^ ~ ~       p p p p n n n i.i.i.i.i.i.i.p p     U ~ ^ ^ W W ^ W R ~ ~ ~ ~ ~ P ( U ( U ~ U U ~ ",
"W ~ X.X.~ ~ ~ o.%.~ ~ ~ ~ o.o.^ @.U ~ ~       p p p p n n n i.i.i.i.i.i.i.p p     P ~ ~ ~ ~ W ^ W P ~ ~ ~ Y P ~  .^ P U U ^ U ..",
"~  .*.o.X.~ X.%.%.~ ~ ~ ~ ^ @.~ ~ ~ ~ ~       p p n n n n n i.i.i.i.p.p.p.p p     o.U ~ ~ W W W W W ~ ~ ~ ~ P ~ U ~ U U U o.U ..",
"~ X.*.X.X.~ ~ ~ ~ ~ ~ ~ W ~ ~ ^ ^ ` ~ ~       p p n n n n n i.i.i.i.p.p.p.p p      .U ~ R R ~ W ~ ~ W ~ ~ P ~ ~ P ~ P ~ o.~ U ..",
"$.&._ o.o.~ ~ X._ ~ ) $.~ ~  . .^ ^ ^ ~       p r n n n n n i.i.i.i.p.p.p.p p     ~ ~ ~ ~ W ~ ~ ~ ~ P W  .P W ~ P @.~ ~ o.^ U ..",
"W $.) ) $.1.) %.~ ) ) %.X.X.%.%.~ ~     a.a.a.a.a.n n n n n i.i.p.p.p.p.p.p p t.t.      ~ ~ ~ ~ ~ %.W ~ X.W  . .W o.o. .~  .~ ~ ",
"$.%.' $.$.) =.%.1._ %.$.X.$.&.%.:.~     a.a.a.a.a.n n n n m i.i.p.p.p.p.p.p p t.t.      ~ X.P ~ ~ ~ W ~  .W W  .U X.W W ~  .o.~ ",
"-.;.$.~ ! ) _ %.1.1.$.;.$.$.*.;.,.;.    a.a.a.a.a.n n n n n u.u.u.u.u.u.u.p p t.t.      X.X.'  .~ ~ ~ ~ ' ~ W X.W P ~ W W ~ X.~ ",
"{ { ! E ! ! ! ! ) E ! $.! ! ! ! %.*.    a.a.a.a.a.n n n n n u.u.u.u.u.u.u.p p t.t.      } ' } { ' { } ! ' ' Q { { E W { Q ! $.E ",
"g r r g r p d f d r r r r p b B K P u i       y.y.u.u.u.u.u.y.y.u.u.u.u.u.        9 9 9 l l l z x l l y y l l y r l l l g y r r ",
"0 - % 0 0 5 0 5 5 * - : % $ > h T R u u       y.y.u.u.u.u.u.y.y.u.u.u.u.u.        + + + 2 1 1 = = = = = = = = 8 # = = - 8 - = # ",
"% % % 0 * > > : > : 5 q 7 > p b u y u k       p p n m           p p n n n     + + + + + O O # # X X X . # = = X $ X # # # $ . # ",
"n A S S m B B B S S T S S K E W u u u x       p p n n           p p n n n     9 3 3 9 t t t z p r 0 0 0 r N D N v z A z z N N H ",
"#.2.9.7.0.8.8.8.0.9.7.9.;.;.*.8.x c k x       r p n m           p p n n n     x V x x V V x 7.-.2.-.6.q.e.w.e.e.r.e.r.r.w.r.0.r.",
";.#.$.o.1.1.0.%.;.$.o.*.*.%.~ ,.k x k x x u x i i i i i i u u x k x x x x k x x y i x x y l %.;.+.#.&.&.$.$.+.0.1.*.%.,.;.8.%.,.",
",.*.,.>.:.,.1.,.%.*.3.+.o.,.o.o.x k u x x x i l i u u i x x u u l k k u j k l x x x x i x x ,.*.X.&.*.+.*.,.;.>.>.o.@.o.>.,.,.>.",
"*.*.,.,.,.@.@.@.o.*.+.o.o.+.~ o.^ ^ u k x u x i u l l u x u k k k j k k x x i x l x x x ^ >.;.o.X.X.%.,.%.*.,.3.X.o.~ @.1.1.,.*.",
"1.1.1.1.%.,.*.%.*.;.o. .X.,.+. .o.1.x x x u l x x l x i x x i i u k x x k u u u u x u l *.%.X.X.%.*.,.&.%.o.*.+.+.*.,.@.o.>.>.1.",
"o.^ o.;.%.%.%.X.X.$.' X.o.*.X.~ o.*.~ ~  . .^  .o.X.*.%.o.o.~ %.%.o.*.%.%.%.o.o.o.o.X.o.1.1.o.1.$.%.%.o.o. .o.X.>.o...@.o.o.(  .",
"W W $.%.$._ %.$.*.$.W X.*.&.#.~ )  . .W ^ *. .~  .~ o.~ ~ ) ~ %.o.^ o.o.o.X.o.o.~ ~ W X.@.~ ~ ~ ~ o.o.o. .~ o.o.~ ~  .~ o.^ ( U ",
"$.%.;.$.~ W $.%.;.$.{ X.$.$.X.X.$.W ~  .o.o.W o. .~ %.) W ~ X.%.~ W W ~ ~ $.%.~ ~ ,.*.$.+.+.%.W ~ o.X.o.o.~ o.o. .@.@.@.o.o.o.o.",
"&.&.&.$.W W $.{ W $.*.X.$.$.! ~ $.X.%.X.$.o.~ %.~ ~ _ o.X.X.X.o.~ } W $.W $.=.$.W X.-.$.$.=.=.$.} ~ W $.;.$.$.$.$.$.*.o.$.X.$.$.",
"{ { W $.X.$.$.W W { X.#.{ ~ X.X.$.%.&.W ~ $.) ~ $.~ ~ $.X.o.X.#.%.W $.$.$.$.$.$.W W $.;.=.$.=.=.;.$.W { -.&.$.$.~ $.W } ~ ! ) W ",
"$.X.$.$.$.*.*.X.*.$.X.' W W X.X.$.;.) W ) ) _ W ) W ~ ~ ' X. .~ ~ ~  .~  .~ ~ ~ ~ W ~ %.o.~ ~ X.$.$.~ $.*.o._ o.*.o.o.%.*.%.%.%.",
"W ! $.$.W X.%.*.-.$.' X.X.~ W ~ ~ =.%._ 1.~ ) ) ~ ~ ) $. .X.Y X.~ ~ ^ U ~ ~ o.%.,.o.*.,.^ o.o.W o.%.%.*.,.*.,.1.3.*.o.>.,.*.%.o."
};
