/* XPM */
static char *_e866300632942e6d2ce2d1f822123a2e2ivWftN5UNnbYkg[] = {
/* columns rows colors chars-per-pixel */
"64 64 256 2 ",
"   c black",
".  c #384560",
"X  c #040001",
"o  c #3F4F6A",
"O  c #020202",
"+  c #414F6C",
"@  c #3E4C67",
"#  c #000003",
"$  c #010000",
"%  c #020205",
"&  c #374762",
"*  c #3D4964",
"=  c #3C4760",
"-  c #526382",
";  c #3C4A67",
":  c #3B4963",
">  c #3A4762",
",  c #2E3C57",
"<  c #000006",
"1  c #44536C",
"2  c #384868",
"3  c #4F607F",
"4  c #3F4C69",
"5  c #37455E",
"6  c #46536F",
"7  c #35445F",
"8  c #131927",
"9  c #0A0404",
"0  c #3C4B64",
"q  c #364562",
"w  c #34425C",
"e  c #060913",
"r  c #343E53",
"t  c #3C4C67",
"y  c #41516C",
"u  c #4E5D7A",
"i  c #3C4A61",
"p  c #414C61",
"a  c #050105",
"s  c #4F5F7D",
"d  c #51607E",
"f  c #566686",
"g  c #3E4E67",
"h  c #3E4A66",
"j  c #0E0705",
"k  c #364666",
"l  c #404E67",
"z  c #02030A",
"x  c #3A4866",
"c  c #414E69",
"v  c #3D4E6C",
"b  c #32425F",
"n  c #313D56",
"m  c #040608",
"M  c #4C5D7D",
"N  c #3C4E69",
"B  c #3C4B69",
"V  c #4B5978",
"C  c #404F65",
"Z  c #43536F",
"A  c #36445C",
"S  c #516180",
"D  c #415069",
"F  c #525F7B",
"G  c #3E4C64",
"H  c #3A4561",
"J  c #3D4A5C",
"K  c #4C5B7B",
"L  c #42516D",
"P  c #414F6F",
"I  c #2C364C",
"U  c #364259",
"Y  c #31405C",
"T  c #0E1625",
"R  c #293249",
"E  c #313F58",
"W  c #06090E",
"Q  c #556583",
"!  c #1D2533",
"~  c #36405C",
"^  c #3D4862",
"/  c #2C3444",
"(  c #39465B",
")  c #536280",
"_  c #546480",
"`  c #4F5E78",
"'  c #090D16",
"]  c #252F3F",
"[  c #27354B",
"{  c #384A6B",
"}  c #364156",
"|  c #39475F",
" . c #414D64",
".. c #3E4D6E",
"X. c #0B1223",
"o. c #090D1B",
"O. c #12141F",
"+. c #384864",
"@. c #506283",
"#. c #4D5B78",
"$. c #54617D",
"%. c #3A4A65",
"&. c #536586",
"*. c #3E4B61",
"=. c #475472",
"-. c #485876",
";. c #546384",
":. c #273145",
">. c #384564",
",. c #1E2739",
"<. c #323C4F",
"1. c #343F58",
"2. c #192135",
"3. c #13192C",
"4. c #070F21",
"5. c #394B67",
"6. c #3C4C6B",
"7. c #00040E",
"8. c #5A6989",
"9. c #181E27",
"0. c #414C67",
"q. c #475879",
"w. c #475772",
"e. c #39435B",
"r. c #242B39",
"t. c #1B2437",
"y. c #313850",
"u. c #405576",
"i. c #141F34",
"p. c #454F65",
"a. c #272E45",
"s. c #495B7A",
"d. c #415372",
"f. c #47566F",
"g. c #445272",
"h. c #2F394D",
"j. c #121820",
"k. c #2B3750",
"l. c #455676",
"z. c #3A435E",
"x. c #141D2F",
"c. c #222634",
"v. c #293955",
"b. c #0D182F",
"n. c #27344E",
"m. c #030404",
"M. c #40526F",
"N. c #546281",
"B. c #4B5A74",
"V. c #24304A",
"C. c #2D3A54",
"Z. c #1B2131",
"A. c #3D516E",
"S. c #4C5D80",
"D. c #0C1019",
"F. c #5A6885",
"G. c #21293C",
"H. c #0C101E",
"J. c #394457",
"K. c #212C43",
"L. c #131623",
"P. c #242D43",
"I. c #101C33",
"U. c #05050D",
"Y. c #384961",
"T. c #212B3E",
"R. c #515D7A",
"E. c #3D475D",
"W. c #181F30",
"Q. c #232738",
"!. c #324363",
"~. c #10172A",
"^. c #212F47",
"/. c #232B3F",
"(. c #455369",
"). c #576584",
"_. c #181A21",
"`. c #435778",
"'. c #3D5171",
"]. c #455069",
"[. c #576987",
"{. c #09090C",
"}. c #32415A",
"|. c #566789",
" X c #4B5775",
".X c #58647F",
"XX c #1A2742",
"oX c #1C273D",
"OX c #2D3A51",
"+X c #171E2C",
"@X c #293140",
"#X c #1F283F",
"$X c #43597D",
"%X c #19212D",
"&X c #2C3F60",
"*X c #404861",
"=X c #28314F",
"-X c #0E141E",
";X c #142546",
":X c #0C0C11",
">X c #4F6083",
",X c #313B53",
"<X c #2E384A",
"1X c #0B1429",
"2X c #181A28",
"3X c #040A19",
"4X c #5D6B86",
"5X c #3D4657",
"6X c #49556C",
"7X c #20222F",
"8X c #4D5E7D",
"9X c #2E3D53",
"0X c #2D3647",
"qX c #364261",
"wX c #304668",
"eX c #5E7192",
"rX c #1E2C45",
"tX c #203151",
"yX c #15203A",
"uX c #303F5F",
"iX c #576781",
"pX c #606F8A",
"aX c #2D3C5C",
"sX c #17223F",
"dX c #3A4F6D",
"fX c #273A5C",
"gX c #1A223B",
"hX c #394C70",
"jX c #39517A",
"kX c #33485E",
"lX c #4F5A71",
"zX c #657798",
"xX c #182C4F",
"cX c #353C4A",
"vX c #23304E",
"bX c #1A1D35",
"nX c #293552",
"mX c #2F4770",
"MX c #21272F",
"NX c #364559",
"BX c #4B5565",
"VX c #4C566D",
"CX c #576C8C",
"ZX c #121117",
"AX c #2A3139",
"SX c #364E71",
"DX c #556275",
"FX c #102140",
"GX c #3A4253",
"HX c #081B38",
"JX c #213755",
"KX c #34456B",
"LX c #5B6E90",
"PX c #68758B",
"IX c #768496",
"UX c #7E8EA9",
/* pixels */
"      a 9 9 j j j 9 a O O #   % a 9 j j j 9 9 9 X j j 9 j 9 j 9 9 9 j j j 9 a   # O   O a 9 j j j j j 9 j 9 9 9 9 j j 9 {.# $   ",
"      < < z z U.< m < < % a % # # #             < # # m.m.m.        # # < z # # # m m #   #   < #   # # #     X X $     #       ",
"  # e x.[ E b k !.e.GX%X< # < 7.4.~.b.b.I.x.T X.XXJXv.aX&XfXv.rXb.XXXXrXn.h.#XT < % < 3Xt.tXJX&Xb }.NX9X[ [ oXi.FXtXfXr AX<     ",
"$ < r.C w.s 3 S S d PXDX7.U.Z.J (.B.$.F.#.1 1 4 iX8.8.eXzXeXeX;.+ R.6 F ;.@.zXp 7.e !  .` CXeXpXpX4XpX4X8.f &.S.u.|.zXUXIX_.  % ",
"X z J ` -.-.s.M f iXpXiX4.o.J DX` 3 - [.d ` ` -.f 3 8Xl.[.&.f V A.#.F Q 8.CXzXc 4.H.J F _ CX|.&.@.- 8X&.@.M S...`.>XeXUXPX'     ",
"a z J F s.M q.-.l.3 F w.b.3.VXiXu - @.3 3 - 8Xs.8X&.S.l.d.- - K g.3 d d f 3 ).V b.x.lX4X- |.@.M 8.&.q.S.|.S.>XS.q.&.LXzXDX7.  $ ",
"a z *._ s K q.K s K s F gXI F.` s 8X- @.8X- s M 8XS s.M K s.Q V -.4X_ ` ) u _ =.i.y.4X_ [.>X&.M S &.@.>X@.LX&.>X&.q.q.+ <Xe   m.",
"a z 6X) d K K K d 3 $.$.#Xe.pXu s S q.M 3 8X) u N.K N.- - S [.F o _ F F u d ) R.gX1.PX).Q &.S.f Q [.- 8XM S.;.|.f K g.1 t.W   j ",
"a z  .F V 8XK K u K K =.sX1..X$.) 8XS - 8X3 N.-..XS d 3 - 8XK =.h =.V V #.u R. XyXU pX).[.@.>X&.- S N.N.8.K S.f S V d.D a.e # O ",
"O U. .F s s M 3 u d ) R.XXn ` d - 3 S.S.S 3 u F V ) _ - f S K -.L =.#.#.u s R.L sXe.F u ;.- f f - 3 Q 8.;.8.;.f ;.3 CX[.h -X# $ ",
"a ' 6XN.) 3 S.s.3 d ).=.sXH $.F ) s - 8XQ s s F  Xu N.).Q - B._  XV V 8Xd #.u + XXU .X_ s S - [.N.) S - f ;.).;.u u.CXLXiX9.  O ",
"# o.` F.N.).3 V 3 Q F.-.yX .iX` $.) s _ _ ) d .X4 6 F.Q ) K s._ $.S 3 3 S d N. XXX5 F.F.Q [.f S [.f - f f ).).d V dXeXeX4X%X  m.",
"  4.B.Q ;.;.@.|.S ;.f  Xi.e.` $.F u S ) d Q $.F h l F.F s #.u _ d S - f ) ) ).R.sXn $.4XF.).- Q - - f 8.8.8.F..X6X9Xq.zX4XO.    ",
"  3Xw.f f ;.;.;.f S 8.$.b.*X.X.X$._ ) $.$._ ` .XVXR 1.B.` u ` iXQ Q - Q N.) )..XyXI 4X.XF.F.Q 8.- Q &.8.).F.).F p.NXI.K.cXe   $ ",
"  3X#.8.f |.|.- N.d #.* X.r B.B.#.u R.R.u ` $.$.0.I #XOXc  XV S Q ;.K V V  X6  .x.#X$.F s ) d s d V w.-.V u N.R. X,Xt.L.O.{.# $ ",
"  3X-.3 l.V q.g.P B : C.1Xr ].6 1 L Z =.L f.6 =.6 z.R ~ 0.4 + P l.g...4 + >., z.bXt.B.` w.=.s 3 s u R..XN.u K s #.P e.2XD.W # $ ",
"  7.D P >.>.k ; B + f.* 3.r h =.V l.l.w.Z f.6 y .X6 K.=. X=. XP g.u.P 4 + 6.L *XbX:.B.R._ u 3 K -.R.R.#.w.-.P B =.L = 3.' W %   ",
"  7.= h q q qXY Y Y A OXi.( f.Z P L Z N %.A 5 @ @ w C.c 6 w.B.=.d.P l.l.+ v + ^ /.,X6 =.g.P 4 h 4 * ~ 5 5 Y >.4 >.+ 5 3.D.U.% $ ",
"  e } c @ w v., C., }.k.x.9XD g o %.q 7 w 9XA w E A 1.5 ; t N B 6.B N ; & 7 q * /.I 6X6 L 5.>.* ^ h ^ = > h qX: qX: [ ~.D.U.%   ",
"  7.} . E E C.n., E E n x.R : 7 Y q 7 , }.| | A U OXOX, v.nXv., E , , A E nX5 1.bXP.l 0.0 * ~ * * H E 7 , nX=X^.^.rXb.~.o.W %   ",
"  7.}.& 5 w E }.}.1.| n Z.R w 7 w : . i | = | ( *.( K.C.C.n.C.C.v.C., n.^.n.n.P.i.#X .*.> ^ ~ n H H 0.c ].6 6 6 @ 6XR G.8 U.#   ",
"  7.NX: Y , C.E E | p I T <.. & w n 1.E 5 ( *.p p.p <X].1 0 h * @ h : . | i  .p cX<Xp.p.6X]. .6XVXlXlXVX].].].h ].(.5XcXMXW # O ",
"  z BXlX .= l D | ( i r H.GX1 H z.z.p p.(.( <.<.0X/ @XJ H G (.(.6Xp E.J E.( ( J.r.7XGX5XGX5Xr R P.gXi.i.b.I.2.x.4.4.X.r.7XW m.  ",
"    W.a.:.:.] r.Q.! ,.c.O.9.8 j.8 %X! t.i.~.~.~.X.o.e {.ZXO.H.O.8 3.~.T T X.o.3X3Xe e e o.T x.oXn.k.n 1.U = p J <.,.! r._.m m.$ ",
"  O {.W e -X8 8 3.j.' e ' O.8 W.,.V.n 5 5 A e.U E./ %X_.7Xr.r.r.r.] a.P.P.G.Z.Z.2.+X_.7X! ] ,X* 1 6  X#.V w.B.` lXp 2.Z.' % m.$ ",
"  % j.AX/ <.,X1.U } r / O.Q.z.h h + + 4 f.1 l D (.z.^ H > 0. .0. .*X= = *.p J J ( 0Xc.@Xr } | h B P P P u.g.L f.f.( /.2Xe % m.$ ",
"  m ] i h @ c + L c 6X .+X@XC  .@ 4 4 B B ; : o x > : B %.t @ ; 4 c c c o g c D l ,XZ.h.h : @ P P g.g.6.{ ..k =.4 , V.Q.' # O   ",
"X U.h.*.0 L Z Z Z Z f.i 2./ p p l y o o 4 c 0 g @ @ : o N g o + + 1 1 6 Z y 1 1 c U ! r ; @ 6.g.M.g.....2 uXaX!.2 !.tXrXo.% O $ ",
"a 7.J.D o Z P 5.+ M.d.l ,./ p C l t B ; o 0 > c 0 . B A.A.M.Z + c 1 6 6 1 y Z w.Z e.! } 6.N ; q q x 2 k 6.{ k 2 !.{ wXdX3.z m.  ",
"a 7.J 6 + B 2 x v 6.v B gX/.p G . . : %.: +.@ g 0 Y 4 dXA.Z 1 0.0.1 @ h @ + t o w.^ Q.h.5.t x b : >.>.x P g...P 2 KXSXu.R z m $ ",
"a z 5 1 o +.x +.6.B B h gXQ.J Y.A 5 : t 0 i l 0 l e.o A.M.y D c c G i A i y G @ 1 *XQ.0XkXY.t o : : q ; ; 6...2 2 hXSXu.I 7.m   ",
"X < w A.+.+.b %.6.o 6 c bXQ.J i i Y.Y.0 l G  .*.= U 1 M.A.+ l l i = i i | G  .g C E.c.0XkX5 0 G : A . * q x x x >.{ u.`.<.e # $ ",
"X < kXZ 5.%.& +.o @ l h 3.MX*.C (.6Xf.(.(.p.p p J } lXf.B.f.D G *.i  .G i  .*.p p GXO.r.G G = p  .p.p.p.].= ^ 1., , `.2 ] W # $ ",
"$ < [ | 5 }.w n n U J.h.8 9./ <Xh.<X} } J.} h.0X@X,./ :.T.T.T.] 0X<Xr r I :.0X0X@Xc._.9.r.@Xr.Q.r.c.@X/ / r.7X2X_.ZXZXZX:Xa # $ ",
"$ m j.W.i.yXsXXXXXP.t.~.4._.9.9.~.X.1XT X.X.X.X.1X1X~.2.2.t././.T.] ! ! ! W.t.! ! %X8 9.8 8 Z.t.G.! 8 L.O.O.O._._.:Xm m m m O   ",
"  z +X<.w & q b 7 E 5 R y.n A . * p *X5XQ.R *X= H h = z.= = * 5 . z.,X=X~ qXqX>.. ~ z.z.z.H * 4 h *X5XZ.2XbXy.p.e.1.r ] -Xm m.$ ",
"  z ! * @ 4 2 2 2 5.D U | ^ . > * ^ p } /.,X^ . >.: h > | : : ; %.. ,Xa.~ x >.x >.. = * * > x 4 P L  .:./.P.* l.'.u.'.Z ] W m.X ",
"  U./ D %.v B 6.k ; +.w e.: 0 : 0 0 > A :.1.> t t 4 @ * h %.7 ; N @ k.I . * 5.t +.5 i i * h %.B L Z 4 r a.I P q.$Xu.u.d.<.D.%   ",
"$ z h.y 6.v k k v L q =X> & 0 t @ 0 t > :.U @ @ : h 4 * 0 ; b +.L c k.OX; t B B B H A c 0 o 4 4 L L 6 1.R y.=.d.u.jXu.s.} ' m   ",
"X z 9XM.6.6.{ k k 4 . =X}.q q @ %.%.0 H ^.5 h 4 %.> x : %.%.b & o l n.~ + 4 ; ; qXq ~ : : > t 4 c c 6 n I ~ ..{ hXSX'.-.e.D.%   ",
"X z 9Xv k 5.!.2 b x * C.Y Y & ; +.5 Y.~ [ = * : > * . . . : & 7 o H ^.* 0.@ * > H 5 5 w 5 5 > @ g G c e.R z...k KX{ { 6 J.-X  O ",
"$ # OX6.k k uX!.& x * 1.. w w & 7 w | ,X#XE.*.E.*.^ G * A | l | *.,XK.0.0.h ^ = = 1.U U 5 > : l i G  .h.I 0.6 q b b n <./ D.  m.",
"    :.| . b +.+.& > = r U i | 5 : i ( I ! 0Xr r <.r J p.E.( *.J E.h.t.h.E.E.E.*X5X<.I <.} = i  .J J.h.@X@XcXr } } ,X,.3X:Xm $ $ ",
"$   T K.^.n.n.^.P.oX:.W.,.:.,.2.2.,.G.+XH.e o.H.T 8 3.3.4.X.T +X2XX.X.X.X.X.L.2XT W.W.x.3.2.t.t.2.3.T o.e e D.L.L.D.{.% < O m.X ",
"  a j.G.K.V.V.rXnXV.2.X.H.L.7XQ.G.P.n.k.R /.G.T.r.c.O.2X+XZ.Z.W.Z.,.G./.G.! j.D.o.8 /.P.K.V.R :.:.P.G.2.2X2XL.L.j.ZX{.m U.% m.X ",
"  # %Xr 7 2 k v N @ G x.2Xp C l g g o + 1 0.4 * H k.+X<X( E.i C C p.C G C *.| ! ' / | i t o o L 1 l l y ; z.~ 1.OX[ a.8 ZXm O $ ",
"$ # :.5.2 { wX2 6.g C t.2X*.g o o N o 4 4 @ . %.0 OX7X/ kX& +.Y.g C G G t Y.NX] H.:.D o v '.A.v y D N y '.{ { 2 !.fXV.] MXm O   ",
"$ < [ o 6.A.{ { B o (.G.L.e.D 1 y L + o @ D 5 g o w 9.@X& t 5.N g y D g o 0 *./ H.,.D y A.d.d.d.Z 1 g L P v 6.k wXuX^.] r.{.  $ ",
"X # [ 5.5.{ 2 2 %.g C ,.8 ( D y L v N 0 D @ }.& 1 = %X:.B o o N @ t g + o t h h.8 G.y y M.M...M.Z 1 i 4 +.>.v !.wX!.rXG.AX{.# $ ",
"X # [ N N q uXY w }.E G.8 ( D L + v %.: | w 5 Y.D 1.! <X5.N + N ; : +.2 2 q 7 I x.a.Z Z M.2 2 ; 4 c . w , w 2 k aXfXK.,.r.{.#   ",
"  O ^.+.+.7 aXY n E 5 P.8 J.l o ; 5.%.7 n 9X5 5 Y.r c.h.t N 6.o 4 +.& +.b b Y y.W.R g.-.Z B 5.b . | E E , 7 b , v.v.oXx.9.m #   ",
"  X ^.5.Y q , [ , A | a.8 } i %.%.b 7 . U 5 A ( NXr Q.OX+.x 5.q > x %., , , w y.Z./.l %.t x >.. 1.U U w Y Y , C.C.k.,.3X:Xm.O $ ",
"    oX& b 7 C.E n 1.w I 8 <.5 w Y b q 7 w 0 ( ( } r ,.k.x >.>.q qXw }.5 E Y w <.9.T.0 E b q qX> ~ e.U U n n z.z.J./ _.:X% % O $ ",
"  < r.C l | 0 ].= z.C R L.5X .= H 0.= | ( ( r } J <.c.e.@ 0.0.0.^ * f.Y.: %.A k.j.MXi 1.E , nX,Xk.=XR K.#XoX#XoX2.2X:XU.W m.O $ ",
"  # c.5Xr n.[ :.P.R OXt.ZXcX<.R a.a.a.P.G.gXi.t.2.W.L.@Xy.y.I R h.y.y.R :.[ n.#X:XZX[ :.R k.=XnXvXvXk.V.V.n.C.V.sXb.T _.D.% m.  ",
"    D.Z.Z.~.1XT 1Xb.gXX.e o.3XX.i.gXrXV.a.K.^.vXnXV.X.H.~.~.3.x.bXbXb.i.b.b.1X8 {.U.i.oX[ C.vXtX!...w.L 6 Z g.P k tX;X2.-X% m.  ",
"  # e 8 4.4.1Xb.HXFXxX1Xz o.i.rXvX!.d.`.q.u.l.l.`.P bXX.I.yXsX;X;X;X;X;XxXxXsX3.j z 8 2.I.I.FXJX!.d.8X!.uX2 g.'.k &XfXXX-Xz # $ ",
"  # ' 3.I.HX;XxXfXfXaX3.a 7Xg 1 & M.l...{ wX'.dX'.k 3.Z.9X&XwXmXwXwXmXmXmXmXKXx.j :X+X2.i.XXtX&Xs.s.M ..q 7 uXaXtXHXFXHXT m $ $ ",
"  a D.] , dX>X>X$X`.: T m r.(.y w.-.M.A.`.'.dXdX{ !.P.h.N '.u.$X$X$X$XjXjXjXhX,.9 j -XK.7 A.M.l.s.s.s.6.C.n.vXtXxXxX;X;XT < $ X ",
"  a e 5X_ -.`.s.s B.J.-X< r.p.(.g t o o 5.aXY t N o [ Y.g M.d.`.$X`.`.$X$Xu.g.T.m.9 D.k.o dX6.v Z w.6 9Xi.i.oXv.dXSXjX&XL.m.  X ",
"  a W BXIXpXF.$.DXp.AXU.m MXBXVXBXp J.<X@Xr.] <.( 9XT.J *.6X(.f.B.#.` #.B.f.<.-Xa O U.P.1 6 c 0. .J.cX! j.D.j.c.I t ..uX9.m     ",
"  # % j.9.-X-Xo.' 7.< # m {.j.j.O.-X' U.m {.W W ' e j.j.8 ! %X9.9.9.L.H.o.' z m O O m.O 3XX.T L.H.' W < # % m.m # m e O.:Xm.    ",
"X X     # # # # < a % a a X   # % #   X O $           # # # < < # # # # % a O O O X a O $   # # % a O % m.O O X $   m m.  O O $ ",
"9 a # % m # a 9 # 9 $   # # a # # a a a a a a # #   # # # < # #   # # # # #       X X   # # < a   $ a m m a O # O O   O $ X   X "
};
